M48
; DRILL file {KiCad (5.1.9)-1} date 01/24/22 16:53:53
; FORMAT={-:-/ absolute / inch / decimal}
; #@! TF.CreationDate,2022-01-24T16:53:53-08:00
; #@! TF.GenerationSoftware,Kicad,Pcbnew,(5.1.9)-1
FMAT,2
INCH
T1C0.0157
T2C0.0236
T3C0.0394
T4C0.0433
T5C0.0591
T6C0.1260
%
G90
G05
T1
X2.7205Y-3.3386
X3.0197Y-2.5787
X3.126Y-3.0315
X3.5551Y-3.0276
X3.5906Y-3.5197
X3.7835Y-2.7165
X3.8031Y-2.9606
X3.9724Y-3.6693
X4.3346Y-3.4173
X4.6575Y-3.0276
X4.937Y-3.5354
X5.0118Y-2.6063
X5.2559Y-2.5787
X5.4055Y-2.9173
X5.7283Y-2.8346
X5.7638Y-2.6063
X5.7717Y-3.5787
X6.3465Y-2.9606
X6.4016Y-2.374
X6.5157Y-2.4685
X6.9252Y-3.0276
X6.9685Y-2.4252
X7.3386Y-2.065
X7.3543Y-2.3071
X7.374Y-2.3465
X7.4134Y-2.1024
X7.4252Y-2.2638
X7.4764Y-2.2677
X7.4921Y-2.1417
X7.5157Y-2.2441
X7.752Y-2.9134
X7.85Y-2.585
X7.865Y-2.535
X7.885Y-2.485
X7.905Y-2.435
X7.925Y-2.385
X7.9449Y-2.6673
X7.945Y-2.335
X7.9488Y-3.2736
X7.96Y-2.285
X7.97Y-2.235
X8.0787Y-2.8425
X8.126Y-2.8445
X8.1614Y-2.7126
X8.1693Y-2.8189
X8.1732Y-2.5118
X8.225Y-2.755
X8.2604Y-2.7096
X8.3976Y-3.6791
X8.47Y-2.44
X8.5Y-2.39
X8.53Y-2.34
X8.56Y-2.29
X8.58Y-2.24
X8.61Y-3.56
X8.6181Y-2.5669
X8.6201Y-3.8642
X8.65Y-3.29
X8.6614Y-3.3681
X8.6713Y-3.25
X8.6988Y-2.8583
X8.6988Y-2.8996
X8.7008Y-3.0256
X8.7185Y-2.9488
X8.7205Y-3.1929
X8.74Y-2.5213
X8.77Y-3.56
X8.7953Y-3.2559
X8.8057Y-2.2581
X8.8057Y-2.3113
X8.8189Y-2.8031
X8.8392Y-2.2581
X8.8392Y-2.3113
X8.8727Y-2.2581
X8.8727Y-2.3113
X8.8858Y-3.0669
X8.9061Y-2.2581
X8.9061Y-2.3113
X8.91Y-2.3713
X8.9396Y-2.2581
X8.9396Y-2.3113
X8.9429Y-3.0787
X8.9731Y-2.2581
X8.9731Y-2.3113
X8.9882Y-3.0886
X9.0065Y-2.2581
X9.0065Y-2.3113
X9.0118Y-3.1417
X9.0276Y-2.7677
X9.04Y-2.2581
X9.04Y-2.3113
X9.0669Y-3.2008
X9.1Y-2.5213
X9.128Y-3.4055
T3
X1.9713Y-3.7886
X2.05Y-3.7886
X2.1287Y-3.7886
X2.3886Y-3.3713
X2.3886Y-3.45
X2.3886Y-3.5287
X2.4081Y-2.8386
X2.4869Y-2.8386
X2.5656Y-2.8386
X2.7713Y-3.7886
X2.8254Y-2.4213
X2.8254Y-2.5
X2.8254Y-2.5787
X2.85Y-3.7886
X2.9287Y-3.7886
X3.1613Y-2.8386
X3.1886Y-3.3713
X3.1886Y-3.45
X3.1886Y-3.5287
X3.24Y-2.8386
X3.3187Y-2.8386
X3.5413Y-3.7886
X3.5786Y-2.4213
X3.5786Y-2.5
X3.5786Y-2.5787
X3.62Y-3.7886
X3.6987Y-3.7886
X3.9586Y-3.3713
X3.9586Y-3.45
X3.9586Y-3.5287
X4.3013Y-3.7886
X4.38Y-3.7886
X4.4587Y-3.7886
X4.6813Y-2.8386
X4.7186Y-3.3713
X4.7186Y-3.45
X4.7186Y-3.5287
X4.76Y-2.8386
X4.8387Y-2.8386
X5.0713Y-3.7886
X5.0986Y-2.4213
X5.0986Y-2.5
X5.0986Y-2.5787
X5.15Y-3.7886
X5.2287Y-3.7886
X5.4413Y-2.8386
X5.4886Y-3.3713
X5.4886Y-3.45
X5.4886Y-3.5287
X5.52Y-2.8386
X5.5987Y-2.8386
X5.8586Y-2.4213
X5.8586Y-2.5
X5.8586Y-2.5787
X5.8713Y-3.7886
X5.95Y-3.7886
X6.0287Y-3.7886
X6.2013Y-2.8386
X6.28Y-2.8386
X6.2886Y-3.3713
X6.2886Y-3.45
X6.2886Y-3.5287
X6.3587Y-2.8386
X6.6186Y-2.4213
X6.6186Y-2.5
X6.6186Y-2.5787
X6.6713Y-3.7886
X6.75Y-3.7886
X6.8287Y-3.7886
X7.0886Y-3.3713
X7.0886Y-3.45
X7.0886Y-3.5287
X7.4713Y-3.7886
X7.55Y-3.7886
X7.6287Y-3.7886
X7.8886Y-3.3713
X7.8886Y-3.45
X7.8886Y-3.5287
X8.2Y-3.38
X8.2Y-3.48
X8.2Y-3.58
X8.3Y-3.38
X8.3Y-3.48
X8.3Y-3.58
T4
X8.1102Y-3.7598
X8.1102Y-3.937
X8.3661Y-3.7598
X8.3661Y-3.937
T5
X1.8138Y-3.6862
X2.2506Y-2.7362
X2.2862Y-3.2138
X2.6138Y-3.6862
X2.7231Y-2.2638
X3.0038Y-2.7362
X3.0862Y-3.2138
X3.3838Y-3.6862
X3.4762Y-2.2638
X3.8562Y-3.2138
X4.1438Y-3.6862
X4.5238Y-2.7362
X4.6162Y-3.2138
X4.9138Y-3.6862
X4.9962Y-2.2638
X5.2838Y-2.7362
X5.3862Y-3.2138
X5.7138Y-3.6862
X5.7562Y-2.2638
X6.0438Y-2.7362
X6.1862Y-3.2138
X6.5138Y-3.6862
X6.5162Y-2.2638
X6.9862Y-3.2138
X7.3138Y-3.6862
X7.7862Y-3.2138
T6
X1.6142Y-2.2047
X1.6142Y-3.9764
X9.2913Y-2.2047
X9.2913Y-3.9764
T2
G00X8.7526Y-2.1554
M15
G01X8.7526Y-2.1239
M16
G05
G00X8.7526Y-2.3022
M15
G01X8.7526Y-2.2431
M16
G05
G00X9.0931Y-2.1554
M15
G01X9.0931Y-2.1239
M16
G05
G00X9.0931Y-2.3022
M15
G01X9.0931Y-2.2431
M16
G05
T0
M30
