%TF.GenerationSoftware,KiCad,Pcbnew,(5.1.9)-1*%
%TF.CreationDate,2022-01-24T16:54:11-08:00*%
%TF.ProjectId,pspMidi,7073704d-6964-4692-9e6b-696361645f70,rev?*%
%TF.SameCoordinates,Original*%
%TF.FileFunction,Legend,Top*%
%TF.FilePolarity,Positive*%
%FSLAX46Y46*%
G04 Gerber Fmt 4.6, Leading zero omitted, Abs format (unit mm)*
G04 Created by KiCad (PCBNEW (5.1.9)-1) date 2022-01-24 16:54:11*
%MOMM*%
%LPD*%
G01*
G04 APERTURE LIST*
%ADD10C,0.250000*%
%ADD11C,0.120000*%
%ADD12C,0.150000*%
G04 APERTURE END LIST*
D10*
X40238095Y-68702380D02*
X39904761Y-68226190D01*
X39666666Y-68702380D02*
X39666666Y-67702380D01*
X40047619Y-67702380D01*
X40142857Y-67750000D01*
X40190476Y-67797619D01*
X40238095Y-67892857D01*
X40238095Y-68035714D01*
X40190476Y-68130952D01*
X40142857Y-68178571D01*
X40047619Y-68226190D01*
X39666666Y-68226190D01*
X41095238Y-68702380D02*
X41095238Y-68178571D01*
X41047619Y-68083333D01*
X40952380Y-68035714D01*
X40761904Y-68035714D01*
X40666666Y-68083333D01*
X41095238Y-68654761D02*
X41000000Y-68702380D01*
X40761904Y-68702380D01*
X40666666Y-68654761D01*
X40619047Y-68559523D01*
X40619047Y-68464285D01*
X40666666Y-68369047D01*
X40761904Y-68321428D01*
X41000000Y-68321428D01*
X41095238Y-68273809D01*
X41571428Y-68702380D02*
X41571428Y-67702380D01*
X42000000Y-68702380D02*
X42000000Y-68178571D01*
X41952380Y-68083333D01*
X41857142Y-68035714D01*
X41714285Y-68035714D01*
X41619047Y-68083333D01*
X41571428Y-68130952D01*
X42857142Y-68654761D02*
X42761904Y-68702380D01*
X42571428Y-68702380D01*
X42476190Y-68654761D01*
X42428571Y-68559523D01*
X42428571Y-68178571D01*
X42476190Y-68083333D01*
X42571428Y-68035714D01*
X42761904Y-68035714D01*
X42857142Y-68083333D01*
X42904761Y-68178571D01*
X42904761Y-68273809D01*
X42428571Y-68369047D01*
X43714285Y-68654761D02*
X43619047Y-68702380D01*
X43428571Y-68702380D01*
X43333333Y-68654761D01*
X43285714Y-68559523D01*
X43285714Y-68178571D01*
X43333333Y-68083333D01*
X43428571Y-68035714D01*
X43619047Y-68035714D01*
X43714285Y-68083333D01*
X43761904Y-68178571D01*
X43761904Y-68273809D01*
X43285714Y-68369047D01*
X44333333Y-68702380D02*
X44238095Y-68654761D01*
X44190476Y-68559523D01*
X44190476Y-67702380D01*
X46047619Y-68702380D02*
X45714285Y-68226190D01*
X45476190Y-68702380D02*
X45476190Y-67702380D01*
X45857142Y-67702380D01*
X45952380Y-67750000D01*
X46000000Y-67797619D01*
X46047619Y-67892857D01*
X46047619Y-68035714D01*
X46000000Y-68130952D01*
X45952380Y-68178571D01*
X45857142Y-68226190D01*
X45476190Y-68226190D01*
X46857142Y-68654761D02*
X46761904Y-68702380D01*
X46571428Y-68702380D01*
X46476190Y-68654761D01*
X46428571Y-68559523D01*
X46428571Y-68178571D01*
X46476190Y-68083333D01*
X46571428Y-68035714D01*
X46761904Y-68035714D01*
X46857142Y-68083333D01*
X46904761Y-68178571D01*
X46904761Y-68273809D01*
X46428571Y-68369047D01*
X47333333Y-68702380D02*
X47333333Y-67702380D01*
X47761904Y-68702380D02*
X47761904Y-68178571D01*
X47714285Y-68083333D01*
X47619047Y-68035714D01*
X47476190Y-68035714D01*
X47380952Y-68083333D01*
X47333333Y-68130952D01*
X48238095Y-68702380D02*
X48238095Y-68035714D01*
X48238095Y-68130952D02*
X48285714Y-68083333D01*
X48380952Y-68035714D01*
X48523809Y-68035714D01*
X48619047Y-68083333D01*
X48666666Y-68178571D01*
X48666666Y-68702380D01*
X48666666Y-68178571D02*
X48714285Y-68083333D01*
X48809523Y-68035714D01*
X48952380Y-68035714D01*
X49047619Y-68083333D01*
X49095238Y-68178571D01*
X49095238Y-68702380D01*
X50000000Y-68702380D02*
X50000000Y-68178571D01*
X49952380Y-68083333D01*
X49857142Y-68035714D01*
X49666666Y-68035714D01*
X49571428Y-68083333D01*
X50000000Y-68654761D02*
X49904761Y-68702380D01*
X49666666Y-68702380D01*
X49571428Y-68654761D01*
X49523809Y-68559523D01*
X49523809Y-68464285D01*
X49571428Y-68369047D01*
X49666666Y-68321428D01*
X49904761Y-68321428D01*
X50000000Y-68273809D01*
X50333333Y-68035714D02*
X50714285Y-68035714D01*
X50476190Y-67702380D02*
X50476190Y-68559523D01*
X50523809Y-68654761D01*
X50619047Y-68702380D01*
X50714285Y-68702380D01*
X51476190Y-68035714D02*
X51476190Y-68702380D01*
X51047619Y-68035714D02*
X51047619Y-68559523D01*
X51095238Y-68654761D01*
X51190476Y-68702380D01*
X51333333Y-68702380D01*
X51428571Y-68654761D01*
X51476190Y-68607142D01*
X52095238Y-68702380D02*
X52000000Y-68654761D01*
X51952380Y-68559523D01*
X51952380Y-67702380D01*
X52619047Y-68702380D02*
X52523809Y-68654761D01*
X52476190Y-68559523D01*
X52476190Y-67702380D01*
X53428571Y-68702380D02*
X53428571Y-68178571D01*
X53380952Y-68083333D01*
X53285714Y-68035714D01*
X53095238Y-68035714D01*
X53000000Y-68083333D01*
X53428571Y-68654761D02*
X53333333Y-68702380D01*
X53095238Y-68702380D01*
X53000000Y-68654761D01*
X52952380Y-68559523D01*
X52952380Y-68464285D01*
X53000000Y-68369047D01*
X53095238Y-68321428D01*
X53333333Y-68321428D01*
X53428571Y-68273809D01*
X53904761Y-68702380D02*
X53904761Y-67702380D01*
X54333333Y-68702380D02*
X54333333Y-68178571D01*
X54285714Y-68083333D01*
X54190476Y-68035714D01*
X54047619Y-68035714D01*
X53952380Y-68083333D01*
X53904761Y-68130952D01*
X44380952Y-69785714D02*
X44380952Y-70785714D01*
X44380952Y-69833333D02*
X44476190Y-69785714D01*
X44666666Y-69785714D01*
X44761904Y-69833333D01*
X44809523Y-69880952D01*
X44857142Y-69976190D01*
X44857142Y-70261904D01*
X44809523Y-70357142D01*
X44761904Y-70404761D01*
X44666666Y-70452380D01*
X44476190Y-70452380D01*
X44380952Y-70404761D01*
X45238095Y-70404761D02*
X45333333Y-70452380D01*
X45523809Y-70452380D01*
X45619047Y-70404761D01*
X45666666Y-70309523D01*
X45666666Y-70261904D01*
X45619047Y-70166666D01*
X45523809Y-70119047D01*
X45380952Y-70119047D01*
X45285714Y-70071428D01*
X45238095Y-69976190D01*
X45238095Y-69928571D01*
X45285714Y-69833333D01*
X45380952Y-69785714D01*
X45523809Y-69785714D01*
X45619047Y-69833333D01*
X46095238Y-69785714D02*
X46095238Y-70785714D01*
X46095238Y-69833333D02*
X46190476Y-69785714D01*
X46380952Y-69785714D01*
X46476190Y-69833333D01*
X46523809Y-69880952D01*
X46571428Y-69976190D01*
X46571428Y-70261904D01*
X46523809Y-70357142D01*
X46476190Y-70404761D01*
X46380952Y-70452380D01*
X46190476Y-70452380D01*
X46095238Y-70404761D01*
X47000000Y-70452380D02*
X47000000Y-69452380D01*
X47333333Y-70166666D01*
X47666666Y-69452380D01*
X47666666Y-70452380D01*
X48142857Y-70452380D02*
X48142857Y-69452380D01*
X48619047Y-70452380D02*
X48619047Y-69452380D01*
X48857142Y-69452380D01*
X49000000Y-69500000D01*
X49095238Y-69595238D01*
X49142857Y-69690476D01*
X49190476Y-69880952D01*
X49190476Y-70023809D01*
X49142857Y-70214285D01*
X49095238Y-70309523D01*
X49000000Y-70404761D01*
X48857142Y-70452380D01*
X48619047Y-70452380D01*
X49619047Y-70452380D02*
X49619047Y-69452380D01*
X42357142Y-71202380D02*
X42357142Y-71916666D01*
X42309523Y-72059523D01*
X42214285Y-72154761D01*
X42071428Y-72202380D01*
X41976190Y-72202380D01*
X43261904Y-72202380D02*
X43261904Y-71678571D01*
X43214285Y-71583333D01*
X43119047Y-71535714D01*
X42928571Y-71535714D01*
X42833333Y-71583333D01*
X43261904Y-72154761D02*
X43166666Y-72202380D01*
X42928571Y-72202380D01*
X42833333Y-72154761D01*
X42785714Y-72059523D01*
X42785714Y-71964285D01*
X42833333Y-71869047D01*
X42928571Y-71821428D01*
X43166666Y-71821428D01*
X43261904Y-71773809D01*
X43738095Y-71535714D02*
X43738095Y-72202380D01*
X43738095Y-71630952D02*
X43785714Y-71583333D01*
X43880952Y-71535714D01*
X44023809Y-71535714D01*
X44119047Y-71583333D01*
X44166666Y-71678571D01*
X44166666Y-72202380D01*
X45071428Y-71535714D02*
X45071428Y-72202380D01*
X44642857Y-71535714D02*
X44642857Y-72059523D01*
X44690476Y-72154761D01*
X44785714Y-72202380D01*
X44928571Y-72202380D01*
X45023809Y-72154761D01*
X45071428Y-72107142D01*
X45976190Y-72202380D02*
X45976190Y-71678571D01*
X45928571Y-71583333D01*
X45833333Y-71535714D01*
X45642857Y-71535714D01*
X45547619Y-71583333D01*
X45976190Y-72154761D02*
X45880952Y-72202380D01*
X45642857Y-72202380D01*
X45547619Y-72154761D01*
X45500000Y-72059523D01*
X45500000Y-71964285D01*
X45547619Y-71869047D01*
X45642857Y-71821428D01*
X45880952Y-71821428D01*
X45976190Y-71773809D01*
X46452380Y-72202380D02*
X46452380Y-71535714D01*
X46452380Y-71726190D02*
X46500000Y-71630952D01*
X46547619Y-71583333D01*
X46642857Y-71535714D01*
X46738095Y-71535714D01*
X46976190Y-71535714D02*
X47214285Y-72202380D01*
X47452380Y-71535714D02*
X47214285Y-72202380D01*
X47119047Y-72440476D01*
X47071428Y-72488095D01*
X46976190Y-72535714D01*
X48547619Y-71297619D02*
X48595238Y-71250000D01*
X48690476Y-71202380D01*
X48928571Y-71202380D01*
X49023809Y-71250000D01*
X49071428Y-71297619D01*
X49119047Y-71392857D01*
X49119047Y-71488095D01*
X49071428Y-71630952D01*
X48500000Y-72202380D01*
X49119047Y-72202380D01*
X49738095Y-71202380D02*
X49833333Y-71202380D01*
X49928571Y-71250000D01*
X49976190Y-71297619D01*
X50023809Y-71392857D01*
X50071428Y-71583333D01*
X50071428Y-71821428D01*
X50023809Y-72011904D01*
X49976190Y-72107142D01*
X49928571Y-72154761D01*
X49833333Y-72202380D01*
X49738095Y-72202380D01*
X49642857Y-72154761D01*
X49595238Y-72107142D01*
X49547619Y-72011904D01*
X49500000Y-71821428D01*
X49500000Y-71583333D01*
X49547619Y-71392857D01*
X49595238Y-71297619D01*
X49642857Y-71250000D01*
X49738095Y-71202380D01*
X50452380Y-71297619D02*
X50500000Y-71250000D01*
X50595238Y-71202380D01*
X50833333Y-71202380D01*
X50928571Y-71250000D01*
X50976190Y-71297619D01*
X51023809Y-71392857D01*
X51023809Y-71488095D01*
X50976190Y-71630952D01*
X50404761Y-72202380D01*
X51023809Y-72202380D01*
X51404761Y-71297619D02*
X51452380Y-71250000D01*
X51547619Y-71202380D01*
X51785714Y-71202380D01*
X51880952Y-71250000D01*
X51928571Y-71297619D01*
X51976190Y-71392857D01*
X51976190Y-71488095D01*
X51928571Y-71630952D01*
X51357142Y-72202380D01*
X51976190Y-72202380D01*
D11*
%TO.C,C5*%
X218696000Y-83050767D02*
X218696000Y-82758233D01*
X217676000Y-83050767D02*
X217676000Y-82758233D01*
%TO.C,Y1*%
X227744000Y-92238000D02*
X222344000Y-92238000D01*
X227744000Y-96738000D02*
X227744000Y-92238000D01*
%TO.C,U3*%
X185878000Y-54939000D02*
X184063000Y-54939000D01*
X185878000Y-54674000D02*
X185878000Y-54939000D01*
X189738000Y-54674000D02*
X185878000Y-54674000D01*
X193598000Y-54674000D02*
X193598000Y-54939000D01*
X189738000Y-54674000D02*
X193598000Y-54674000D01*
X185878000Y-70294000D02*
X185878000Y-70029000D01*
X189738000Y-70294000D02*
X185878000Y-70294000D01*
X193598000Y-70294000D02*
X193598000Y-70029000D01*
X189738000Y-70294000D02*
X193598000Y-70294000D01*
%TO.C,U2*%
X204928000Y-54939000D02*
X203113000Y-54939000D01*
X204928000Y-54674000D02*
X204928000Y-54939000D01*
X208788000Y-54674000D02*
X204928000Y-54674000D01*
X212648000Y-54674000D02*
X212648000Y-54939000D01*
X208788000Y-54674000D02*
X212648000Y-54674000D01*
X204928000Y-70294000D02*
X204928000Y-70029000D01*
X208788000Y-70294000D02*
X204928000Y-70294000D01*
X212648000Y-70294000D02*
X212648000Y-70029000D01*
X208788000Y-70294000D02*
X212648000Y-70294000D01*
%TO.C,U1*%
X222301000Y-80860000D02*
X221576000Y-80860000D01*
X228796000Y-88080000D02*
X228796000Y-87355000D01*
X228071000Y-88080000D02*
X228796000Y-88080000D01*
X221576000Y-88080000D02*
X221576000Y-87355000D01*
X222301000Y-88080000D02*
X221576000Y-88080000D01*
X228796000Y-80860000D02*
X228796000Y-81585000D01*
X228071000Y-80860000D02*
X228796000Y-80860000D01*
%TO.C,SW1*%
X212750000Y-98500000D02*
X212750000Y-97000000D01*
X211500000Y-94500000D02*
X207000000Y-94500000D01*
X205750000Y-97000000D02*
X205750000Y-98500000D01*
X207000000Y-101000000D02*
X211500000Y-101000000D01*
%TO.C,R7*%
X215377500Y-95007776D02*
X215377500Y-95517224D01*
X216422500Y-95007776D02*
X216422500Y-95517224D01*
%TO.C,R6*%
X215427500Y-99395276D02*
X215427500Y-99904724D01*
X216472500Y-99395276D02*
X216472500Y-99904724D01*
%TO.C,R5*%
X209257776Y-83622500D02*
X209767224Y-83622500D01*
X209257776Y-82577500D02*
X209767224Y-82577500D01*
%TO.C,R4*%
X231662500Y-62008724D02*
X231662500Y-61499276D01*
X230617500Y-62008724D02*
X230617500Y-61499276D01*
%TO.C,R3*%
X222518500Y-62008724D02*
X222518500Y-61499276D01*
X221473500Y-62008724D02*
X221473500Y-61499276D01*
%TO.C,R2*%
X224521500Y-61602776D02*
X224521500Y-62112224D01*
X225566500Y-61602776D02*
X225566500Y-62112224D01*
%TO.C,R1*%
X228614500Y-62008724D02*
X228614500Y-61499276D01*
X227569500Y-62008724D02*
X227569500Y-61499276D01*
%TO.C,J2*%
X206950000Y-84522000D02*
X208280000Y-84522000D01*
X206950000Y-85852000D02*
X206950000Y-84522000D01*
X209550000Y-84522000D02*
X212150000Y-84522000D01*
X209550000Y-87122000D02*
X209550000Y-84522000D01*
X206950000Y-87122000D02*
X209550000Y-87122000D01*
X212150000Y-84522000D02*
X212150000Y-92262000D01*
X206950000Y-87122000D02*
X206950000Y-92262000D01*
X206950000Y-92262000D02*
X212150000Y-92262000D01*
%TO.C,J1*%
X231236000Y-56306000D02*
X231236000Y-55406000D01*
X222046000Y-56306000D02*
X222046000Y-55406000D01*
X231236000Y-52706000D02*
X231236000Y-49976000D01*
X222046000Y-52706000D02*
X222046000Y-49976000D01*
X231116000Y-59386000D02*
X222166000Y-59386000D01*
X231236000Y-49976000D02*
X222046000Y-49976000D01*
%TO.C,D2*%
X218185000Y-96945999D02*
X218185000Y-94460999D01*
X216815000Y-96945999D02*
X218185000Y-96945999D01*
X216815000Y-94460999D02*
X216815000Y-96945999D01*
%TO.C,D1*%
X216921999Y-97954001D02*
X216921999Y-100439001D01*
X218291999Y-97954001D02*
X216921999Y-97954001D01*
X218291999Y-100439001D02*
X218291999Y-97954001D01*
%TO.C,C4*%
X223268000Y-77462767D02*
X223268000Y-77170233D01*
X222248000Y-77462767D02*
X222248000Y-77170233D01*
%TO.C,C3*%
X220470000Y-94341733D02*
X220470000Y-94634267D01*
X221490000Y-94341733D02*
X221490000Y-94634267D01*
%TO.C,C2*%
X228598000Y-94341733D02*
X228598000Y-94634267D01*
X229618000Y-94341733D02*
X229618000Y-94634267D01*
%TO.C,C1*%
X216790000Y-86153733D02*
X216790000Y-86446267D01*
X217810000Y-86153733D02*
X217810000Y-86446267D01*
%TO.C,C5*%
D12*
X218543142Y-80430666D02*
X218590761Y-80478285D01*
X218638380Y-80621142D01*
X218638380Y-80716380D01*
X218590761Y-80859238D01*
X218495523Y-80954476D01*
X218400285Y-81002095D01*
X218209809Y-81049714D01*
X218066952Y-81049714D01*
X217876476Y-81002095D01*
X217781238Y-80954476D01*
X217686000Y-80859238D01*
X217638380Y-80716380D01*
X217638380Y-80621142D01*
X217686000Y-80478285D01*
X217733619Y-80430666D01*
X217638380Y-79525904D02*
X217638380Y-80002095D01*
X218114571Y-80049714D01*
X218066952Y-80002095D01*
X218019333Y-79906857D01*
X218019333Y-79668761D01*
X218066952Y-79573523D01*
X218114571Y-79525904D01*
X218209809Y-79478285D01*
X218447904Y-79478285D01*
X218543142Y-79525904D01*
X218590761Y-79573523D01*
X218638380Y-79668761D01*
X218638380Y-79906857D01*
X218590761Y-80002095D01*
X218543142Y-80049714D01*
%TO.C,Y1*%
X224567809Y-97514190D02*
X224567809Y-97990380D01*
X224234476Y-96990380D02*
X224567809Y-97514190D01*
X224901142Y-96990380D01*
X225758285Y-97990380D02*
X225186857Y-97990380D01*
X225472571Y-97990380D02*
X225472571Y-96990380D01*
X225377333Y-97133238D01*
X225282095Y-97228476D01*
X225186857Y-97276095D01*
%TO.C,VR13*%
X189214285Y-89452380D02*
X189547619Y-90452380D01*
X189880952Y-89452380D01*
X190785714Y-90452380D02*
X190452380Y-89976190D01*
X190214285Y-90452380D02*
X190214285Y-89452380D01*
X190595238Y-89452380D01*
X190690476Y-89500000D01*
X190738095Y-89547619D01*
X190785714Y-89642857D01*
X190785714Y-89785714D01*
X190738095Y-89880952D01*
X190690476Y-89928571D01*
X190595238Y-89976190D01*
X190214285Y-89976190D01*
X191738095Y-90452380D02*
X191166666Y-90452380D01*
X191452380Y-90452380D02*
X191452380Y-89452380D01*
X191357142Y-89595238D01*
X191261904Y-89690476D01*
X191166666Y-89738095D01*
X192071428Y-89452380D02*
X192690476Y-89452380D01*
X192357142Y-89833333D01*
X192500000Y-89833333D01*
X192595238Y-89880952D01*
X192642857Y-89928571D01*
X192690476Y-90023809D01*
X192690476Y-90261904D01*
X192642857Y-90357142D01*
X192595238Y-90404761D01*
X192500000Y-90452380D01*
X192214285Y-90452380D01*
X192119047Y-90404761D01*
X192071428Y-90357142D01*
%TO.C,VR12*%
X169214285Y-89452380D02*
X169547619Y-90452380D01*
X169880952Y-89452380D01*
X170785714Y-90452380D02*
X170452380Y-89976190D01*
X170214285Y-90452380D02*
X170214285Y-89452380D01*
X170595238Y-89452380D01*
X170690476Y-89500000D01*
X170738095Y-89547619D01*
X170785714Y-89642857D01*
X170785714Y-89785714D01*
X170738095Y-89880952D01*
X170690476Y-89928571D01*
X170595238Y-89976190D01*
X170214285Y-89976190D01*
X171738095Y-90452380D02*
X171166666Y-90452380D01*
X171452380Y-90452380D02*
X171452380Y-89452380D01*
X171357142Y-89595238D01*
X171261904Y-89690476D01*
X171166666Y-89738095D01*
X172119047Y-89547619D02*
X172166666Y-89500000D01*
X172261904Y-89452380D01*
X172500000Y-89452380D01*
X172595238Y-89500000D01*
X172642857Y-89547619D01*
X172690476Y-89642857D01*
X172690476Y-89738095D01*
X172642857Y-89880952D01*
X172071428Y-90452380D01*
X172690476Y-90452380D01*
%TO.C,VR11*%
X149214285Y-90452380D02*
X149547619Y-91452380D01*
X149880952Y-90452380D01*
X150785714Y-91452380D02*
X150452380Y-90976190D01*
X150214285Y-91452380D02*
X150214285Y-90452380D01*
X150595238Y-90452380D01*
X150690476Y-90500000D01*
X150738095Y-90547619D01*
X150785714Y-90642857D01*
X150785714Y-90785714D01*
X150738095Y-90880952D01*
X150690476Y-90928571D01*
X150595238Y-90976190D01*
X150214285Y-90976190D01*
X151738095Y-91452380D02*
X151166666Y-91452380D01*
X151452380Y-91452380D02*
X151452380Y-90452380D01*
X151357142Y-90595238D01*
X151261904Y-90690476D01*
X151166666Y-90738095D01*
X152690476Y-91452380D02*
X152119047Y-91452380D01*
X152404761Y-91452380D02*
X152404761Y-90452380D01*
X152309523Y-90595238D01*
X152214285Y-90690476D01*
X152119047Y-90738095D01*
%TO.C,VR10*%
X128214285Y-89452380D02*
X128547619Y-90452380D01*
X128880952Y-89452380D01*
X129785714Y-90452380D02*
X129452380Y-89976190D01*
X129214285Y-90452380D02*
X129214285Y-89452380D01*
X129595238Y-89452380D01*
X129690476Y-89500000D01*
X129738095Y-89547619D01*
X129785714Y-89642857D01*
X129785714Y-89785714D01*
X129738095Y-89880952D01*
X129690476Y-89928571D01*
X129595238Y-89976190D01*
X129214285Y-89976190D01*
X130738095Y-90452380D02*
X130166666Y-90452380D01*
X130452380Y-90452380D02*
X130452380Y-89452380D01*
X130357142Y-89595238D01*
X130261904Y-89690476D01*
X130166666Y-89738095D01*
X131357142Y-89452380D02*
X131452380Y-89452380D01*
X131547619Y-89500000D01*
X131595238Y-89547619D01*
X131642857Y-89642857D01*
X131690476Y-89833333D01*
X131690476Y-90071428D01*
X131642857Y-90261904D01*
X131595238Y-90357142D01*
X131547619Y-90404761D01*
X131452380Y-90452380D01*
X131357142Y-90452380D01*
X131261904Y-90404761D01*
X131214285Y-90357142D01*
X131166666Y-90261904D01*
X131119047Y-90071428D01*
X131119047Y-89833333D01*
X131166666Y-89642857D01*
X131214285Y-89547619D01*
X131261904Y-89500000D01*
X131357142Y-89452380D01*
%TO.C,VR9*%
X109993276Y-90452380D02*
X110326609Y-91452380D01*
X110659942Y-90452380D01*
X111564704Y-91452380D02*
X111231371Y-90976190D01*
X110993276Y-91452380D02*
X110993276Y-90452380D01*
X111374228Y-90452380D01*
X111469466Y-90500000D01*
X111517085Y-90547619D01*
X111564704Y-90642857D01*
X111564704Y-90785714D01*
X111517085Y-90880952D01*
X111469466Y-90928571D01*
X111374228Y-90976190D01*
X110993276Y-90976190D01*
X112040895Y-91452380D02*
X112231371Y-91452380D01*
X112326609Y-91404761D01*
X112374228Y-91357142D01*
X112469466Y-91214285D01*
X112517085Y-91023809D01*
X112517085Y-90642857D01*
X112469466Y-90547619D01*
X112421847Y-90500000D01*
X112326609Y-90452380D01*
X112136133Y-90452380D01*
X112040895Y-90500000D01*
X111993276Y-90547619D01*
X111945657Y-90642857D01*
X111945657Y-90880952D01*
X111993276Y-90976190D01*
X112040895Y-91023809D01*
X112136133Y-91071428D01*
X112326609Y-91071428D01*
X112421847Y-91023809D01*
X112469466Y-90976190D01*
X112517085Y-90880952D01*
%TO.C,VR8*%
X90690476Y-91452380D02*
X91023809Y-92452380D01*
X91357142Y-91452380D01*
X92261904Y-92452380D02*
X91928571Y-91976190D01*
X91690476Y-92452380D02*
X91690476Y-91452380D01*
X92071428Y-91452380D01*
X92166666Y-91500000D01*
X92214285Y-91547619D01*
X92261904Y-91642857D01*
X92261904Y-91785714D01*
X92214285Y-91880952D01*
X92166666Y-91928571D01*
X92071428Y-91976190D01*
X91690476Y-91976190D01*
X92833333Y-91880952D02*
X92738095Y-91833333D01*
X92690476Y-91785714D01*
X92642857Y-91690476D01*
X92642857Y-91642857D01*
X92690476Y-91547619D01*
X92738095Y-91500000D01*
X92833333Y-91452380D01*
X93023809Y-91452380D01*
X93119047Y-91500000D01*
X93166666Y-91547619D01*
X93214285Y-91642857D01*
X93214285Y-91690476D01*
X93166666Y-91785714D01*
X93119047Y-91833333D01*
X93023809Y-91880952D01*
X92833333Y-91880952D01*
X92738095Y-91928571D01*
X92690476Y-91976190D01*
X92642857Y-92071428D01*
X92642857Y-92261904D01*
X92690476Y-92357142D01*
X92738095Y-92404761D01*
X92833333Y-92452380D01*
X93023809Y-92452380D01*
X93119047Y-92404761D01*
X93166666Y-92357142D01*
X93214285Y-92261904D01*
X93214285Y-92071428D01*
X93166666Y-91976190D01*
X93119047Y-91928571D01*
X93023809Y-91880952D01*
%TO.C,VR7*%
X71131276Y-91452380D02*
X71464609Y-92452380D01*
X71797942Y-91452380D01*
X72702704Y-92452380D02*
X72369371Y-91976190D01*
X72131276Y-92452380D02*
X72131276Y-91452380D01*
X72512228Y-91452380D01*
X72607466Y-91500000D01*
X72655085Y-91547619D01*
X72702704Y-91642857D01*
X72702704Y-91785714D01*
X72655085Y-91880952D01*
X72607466Y-91928571D01*
X72512228Y-91976190D01*
X72131276Y-91976190D01*
X73036038Y-91452380D02*
X73702704Y-91452380D01*
X73274133Y-92452380D01*
%TO.C,VR6*%
X50690476Y-91452380D02*
X51023809Y-92452380D01*
X51357142Y-91452380D01*
X52261904Y-92452380D02*
X51928571Y-91976190D01*
X51690476Y-92452380D02*
X51690476Y-91452380D01*
X52071428Y-91452380D01*
X52166666Y-91500000D01*
X52214285Y-91547619D01*
X52261904Y-91642857D01*
X52261904Y-91785714D01*
X52214285Y-91880952D01*
X52166666Y-91928571D01*
X52071428Y-91976190D01*
X51690476Y-91976190D01*
X53119047Y-91452380D02*
X52928571Y-91452380D01*
X52833333Y-91500000D01*
X52785714Y-91547619D01*
X52690476Y-91690476D01*
X52642857Y-91880952D01*
X52642857Y-92261904D01*
X52690476Y-92357142D01*
X52738095Y-92404761D01*
X52833333Y-92452380D01*
X53023809Y-92452380D01*
X53119047Y-92404761D01*
X53166666Y-92357142D01*
X53214285Y-92261904D01*
X53214285Y-92023809D01*
X53166666Y-91928571D01*
X53119047Y-91880952D01*
X53023809Y-91833333D01*
X52833333Y-91833333D01*
X52738095Y-91880952D01*
X52690476Y-91928571D01*
X52642857Y-92023809D01*
%TO.C,VR5*%
X157690476Y-64452380D02*
X158023809Y-65452380D01*
X158357142Y-64452380D01*
X159261904Y-65452380D02*
X158928571Y-64976190D01*
X158690476Y-65452380D02*
X158690476Y-64452380D01*
X159071428Y-64452380D01*
X159166666Y-64500000D01*
X159214285Y-64547619D01*
X159261904Y-64642857D01*
X159261904Y-64785714D01*
X159214285Y-64880952D01*
X159166666Y-64928571D01*
X159071428Y-64976190D01*
X158690476Y-64976190D01*
X160166666Y-64452380D02*
X159690476Y-64452380D01*
X159642857Y-64928571D01*
X159690476Y-64880952D01*
X159785714Y-64833333D01*
X160023809Y-64833333D01*
X160119047Y-64880952D01*
X160166666Y-64928571D01*
X160214285Y-65023809D01*
X160214285Y-65261904D01*
X160166666Y-65357142D01*
X160119047Y-65404761D01*
X160023809Y-65452380D01*
X159785714Y-65452380D01*
X159690476Y-65404761D01*
X159642857Y-65357142D01*
%TO.C,VR4*%
X138690476Y-64452380D02*
X139023809Y-65452380D01*
X139357142Y-64452380D01*
X140261904Y-65452380D02*
X139928571Y-64976190D01*
X139690476Y-65452380D02*
X139690476Y-64452380D01*
X140071428Y-64452380D01*
X140166666Y-64500000D01*
X140214285Y-64547619D01*
X140261904Y-64642857D01*
X140261904Y-64785714D01*
X140214285Y-64880952D01*
X140166666Y-64928571D01*
X140071428Y-64976190D01*
X139690476Y-64976190D01*
X141119047Y-64785714D02*
X141119047Y-65452380D01*
X140880952Y-64404761D02*
X140642857Y-65119047D01*
X141261904Y-65119047D01*
%TO.C,VR3*%
X119645276Y-67452380D02*
X119978609Y-68452380D01*
X120311942Y-67452380D01*
X121216704Y-68452380D02*
X120883371Y-67976190D01*
X120645276Y-68452380D02*
X120645276Y-67452380D01*
X121026228Y-67452380D01*
X121121466Y-67500000D01*
X121169085Y-67547619D01*
X121216704Y-67642857D01*
X121216704Y-67785714D01*
X121169085Y-67880952D01*
X121121466Y-67928571D01*
X121026228Y-67976190D01*
X120645276Y-67976190D01*
X121550038Y-67452380D02*
X122169085Y-67452380D01*
X121835752Y-67833333D01*
X121978609Y-67833333D01*
X122073847Y-67880952D01*
X122121466Y-67928571D01*
X122169085Y-68023809D01*
X122169085Y-68261904D01*
X122121466Y-68357142D01*
X122073847Y-68404761D01*
X121978609Y-68452380D01*
X121692895Y-68452380D01*
X121597657Y-68404761D01*
X121550038Y-68357142D01*
%TO.C,VR2*%
X80690476Y-66452380D02*
X81023809Y-67452380D01*
X81357142Y-66452380D01*
X82261904Y-67452380D02*
X81928571Y-66976190D01*
X81690476Y-67452380D02*
X81690476Y-66452380D01*
X82071428Y-66452380D01*
X82166666Y-66500000D01*
X82214285Y-66547619D01*
X82261904Y-66642857D01*
X82261904Y-66785714D01*
X82214285Y-66880952D01*
X82166666Y-66928571D01*
X82071428Y-66976190D01*
X81690476Y-66976190D01*
X82642857Y-66547619D02*
X82690476Y-66500000D01*
X82785714Y-66452380D01*
X83023809Y-66452380D01*
X83119047Y-66500000D01*
X83166666Y-66547619D01*
X83214285Y-66642857D01*
X83214285Y-66738095D01*
X83166666Y-66880952D01*
X82595238Y-67452380D01*
X83214285Y-67452380D01*
%TO.C,VR1*%
X61907277Y-65452380D02*
X62240610Y-66452380D01*
X62573943Y-65452380D01*
X63478705Y-66452380D02*
X63145372Y-65976190D01*
X62907277Y-66452380D02*
X62907277Y-65452380D01*
X63288229Y-65452380D01*
X63383467Y-65500000D01*
X63431086Y-65547619D01*
X63478705Y-65642857D01*
X63478705Y-65785714D01*
X63431086Y-65880952D01*
X63383467Y-65928571D01*
X63288229Y-65976190D01*
X62907277Y-65976190D01*
X64431086Y-66452380D02*
X63859658Y-66452380D01*
X64145372Y-66452380D02*
X64145372Y-65452380D01*
X64050134Y-65595238D01*
X63954896Y-65690476D01*
X63859658Y-65738095D01*
%TO.C,U3*%
X188976095Y-62452380D02*
X188976095Y-63261904D01*
X189023714Y-63357142D01*
X189071333Y-63404761D01*
X189166571Y-63452380D01*
X189357047Y-63452380D01*
X189452285Y-63404761D01*
X189499904Y-63357142D01*
X189547523Y-63261904D01*
X189547523Y-62452380D01*
X189928476Y-62452380D02*
X190547523Y-62452380D01*
X190214190Y-62833333D01*
X190357047Y-62833333D01*
X190452285Y-62880952D01*
X190499904Y-62928571D01*
X190547523Y-63023809D01*
X190547523Y-63261904D01*
X190499904Y-63357142D01*
X190452285Y-63404761D01*
X190357047Y-63452380D01*
X190071333Y-63452380D01*
X189976095Y-63404761D01*
X189928476Y-63357142D01*
%TO.C,U2*%
X208238095Y-62452380D02*
X208238095Y-63261904D01*
X208285714Y-63357142D01*
X208333333Y-63404761D01*
X208428571Y-63452380D01*
X208619047Y-63452380D01*
X208714285Y-63404761D01*
X208761904Y-63357142D01*
X208809523Y-63261904D01*
X208809523Y-62452380D01*
X209238095Y-62547619D02*
X209285714Y-62500000D01*
X209380952Y-62452380D01*
X209619047Y-62452380D01*
X209714285Y-62500000D01*
X209761904Y-62547619D01*
X209809523Y-62642857D01*
X209809523Y-62738095D01*
X209761904Y-62880952D01*
X209190476Y-63452380D01*
X209809523Y-63452380D01*
%TO.C,U1*%
X224424095Y-79102380D02*
X224424095Y-79911904D01*
X224471714Y-80007142D01*
X224519333Y-80054761D01*
X224614571Y-80102380D01*
X224805047Y-80102380D01*
X224900285Y-80054761D01*
X224947904Y-80007142D01*
X224995523Y-79911904D01*
X224995523Y-79102380D01*
X225995523Y-80102380D02*
X225424095Y-80102380D01*
X225709809Y-80102380D02*
X225709809Y-79102380D01*
X225614571Y-79245238D01*
X225519333Y-79340476D01*
X225424095Y-79388095D01*
%TO.C,SW1*%
X207916666Y-98404761D02*
X208059523Y-98452380D01*
X208297619Y-98452380D01*
X208392857Y-98404761D01*
X208440476Y-98357142D01*
X208488095Y-98261904D01*
X208488095Y-98166666D01*
X208440476Y-98071428D01*
X208392857Y-98023809D01*
X208297619Y-97976190D01*
X208107142Y-97928571D01*
X208011904Y-97880952D01*
X207964285Y-97833333D01*
X207916666Y-97738095D01*
X207916666Y-97642857D01*
X207964285Y-97547619D01*
X208011904Y-97500000D01*
X208107142Y-97452380D01*
X208345238Y-97452380D01*
X208488095Y-97500000D01*
X208821428Y-97452380D02*
X209059523Y-98452380D01*
X209250000Y-97738095D01*
X209440476Y-98452380D01*
X209678571Y-97452380D01*
X210583333Y-98452380D02*
X210011904Y-98452380D01*
X210297619Y-98452380D02*
X210297619Y-97452380D01*
X210202380Y-97595238D01*
X210107142Y-97690476D01*
X210011904Y-97738095D01*
%TO.C,R7*%
X219352380Y-95566666D02*
X218876190Y-95900000D01*
X219352380Y-96138095D02*
X218352380Y-96138095D01*
X218352380Y-95757142D01*
X218400000Y-95661904D01*
X218447619Y-95614285D01*
X218542857Y-95566666D01*
X218685714Y-95566666D01*
X218780952Y-95614285D01*
X218828571Y-95661904D01*
X218876190Y-95757142D01*
X218876190Y-96138095D01*
X218352380Y-95233333D02*
X218352380Y-94566666D01*
X219352380Y-94995238D01*
%TO.C,R6*%
X215202380Y-99666666D02*
X214726190Y-100000000D01*
X215202380Y-100238095D02*
X214202380Y-100238095D01*
X214202380Y-99857142D01*
X214250000Y-99761904D01*
X214297619Y-99714285D01*
X214392857Y-99666666D01*
X214535714Y-99666666D01*
X214630952Y-99714285D01*
X214678571Y-99761904D01*
X214726190Y-99857142D01*
X214726190Y-100238095D01*
X214202380Y-98809523D02*
X214202380Y-99000000D01*
X214250000Y-99095238D01*
X214297619Y-99142857D01*
X214440476Y-99238095D01*
X214630952Y-99285714D01*
X215011904Y-99285714D01*
X215107142Y-99238095D01*
X215154761Y-99190476D01*
X215202380Y-99095238D01*
X215202380Y-98904761D01*
X215154761Y-98809523D01*
X215107142Y-98761904D01*
X215011904Y-98714285D01*
X214773809Y-98714285D01*
X214678571Y-98761904D01*
X214630952Y-98809523D01*
X214583333Y-98904761D01*
X214583333Y-99095238D01*
X214630952Y-99190476D01*
X214678571Y-99238095D01*
X214773809Y-99285714D01*
%TO.C,R5*%
X209345833Y-82122380D02*
X209012500Y-81646190D01*
X208774404Y-82122380D02*
X208774404Y-81122380D01*
X209155357Y-81122380D01*
X209250595Y-81170000D01*
X209298214Y-81217619D01*
X209345833Y-81312857D01*
X209345833Y-81455714D01*
X209298214Y-81550952D01*
X209250595Y-81598571D01*
X209155357Y-81646190D01*
X208774404Y-81646190D01*
X210250595Y-81122380D02*
X209774404Y-81122380D01*
X209726785Y-81598571D01*
X209774404Y-81550952D01*
X209869642Y-81503333D01*
X210107738Y-81503333D01*
X210202976Y-81550952D01*
X210250595Y-81598571D01*
X210298214Y-81693809D01*
X210298214Y-81931904D01*
X210250595Y-82027142D01*
X210202976Y-82074761D01*
X210107738Y-82122380D01*
X209869642Y-82122380D01*
X209774404Y-82074761D01*
X209726785Y-82027142D01*
%TO.C,R4*%
X230068380Y-61920666D02*
X229592190Y-62254000D01*
X230068380Y-62492095D02*
X229068380Y-62492095D01*
X229068380Y-62111142D01*
X229116000Y-62015904D01*
X229163619Y-61968285D01*
X229258857Y-61920666D01*
X229401714Y-61920666D01*
X229496952Y-61968285D01*
X229544571Y-62015904D01*
X229592190Y-62111142D01*
X229592190Y-62492095D01*
X229401714Y-61063523D02*
X230068380Y-61063523D01*
X229020761Y-61301619D02*
X229735047Y-61539714D01*
X229735047Y-60920666D01*
%TO.C,R3*%
X220924380Y-61920666D02*
X220448190Y-62254000D01*
X220924380Y-62492095D02*
X219924380Y-62492095D01*
X219924380Y-62111142D01*
X219972000Y-62015904D01*
X220019619Y-61968285D01*
X220114857Y-61920666D01*
X220257714Y-61920666D01*
X220352952Y-61968285D01*
X220400571Y-62015904D01*
X220448190Y-62111142D01*
X220448190Y-62492095D01*
X219924380Y-61587333D02*
X219924380Y-60968285D01*
X220305333Y-61301619D01*
X220305333Y-61158761D01*
X220352952Y-61063523D01*
X220400571Y-61015904D01*
X220495809Y-60968285D01*
X220733904Y-60968285D01*
X220829142Y-61015904D01*
X220876761Y-61063523D01*
X220924380Y-61158761D01*
X220924380Y-61444476D01*
X220876761Y-61539714D01*
X220829142Y-61587333D01*
%TO.C,R2*%
X224226380Y-61920666D02*
X223750190Y-62254000D01*
X224226380Y-62492095D02*
X223226380Y-62492095D01*
X223226380Y-62111142D01*
X223274000Y-62015904D01*
X223321619Y-61968285D01*
X223416857Y-61920666D01*
X223559714Y-61920666D01*
X223654952Y-61968285D01*
X223702571Y-62015904D01*
X223750190Y-62111142D01*
X223750190Y-62492095D01*
X223321619Y-61539714D02*
X223274000Y-61492095D01*
X223226380Y-61396857D01*
X223226380Y-61158761D01*
X223274000Y-61063523D01*
X223321619Y-61015904D01*
X223416857Y-60968285D01*
X223512095Y-60968285D01*
X223654952Y-61015904D01*
X224226380Y-61587333D01*
X224226380Y-60968285D01*
%TO.C,R1*%
X227020380Y-61920666D02*
X226544190Y-62254000D01*
X227020380Y-62492095D02*
X226020380Y-62492095D01*
X226020380Y-62111142D01*
X226068000Y-62015904D01*
X226115619Y-61968285D01*
X226210857Y-61920666D01*
X226353714Y-61920666D01*
X226448952Y-61968285D01*
X226496571Y-62015904D01*
X226544190Y-62111142D01*
X226544190Y-62492095D01*
X227020380Y-60968285D02*
X227020380Y-61539714D01*
X227020380Y-61254000D02*
X226020380Y-61254000D01*
X226163238Y-61349238D01*
X226258476Y-61444476D01*
X226306095Y-61539714D01*
%TO.C,J2*%
X205666666Y-91452380D02*
X205666666Y-92166666D01*
X205619047Y-92309523D01*
X205523809Y-92404761D01*
X205380952Y-92452380D01*
X205285714Y-92452380D01*
X206095238Y-91547619D02*
X206142857Y-91500000D01*
X206238095Y-91452380D01*
X206476190Y-91452380D01*
X206571428Y-91500000D01*
X206619047Y-91547619D01*
X206666666Y-91642857D01*
X206666666Y-91738095D01*
X206619047Y-91880952D01*
X206047619Y-92452380D01*
X206666666Y-92452380D01*
%TO.C,J1*%
X226307666Y-54094380D02*
X226307666Y-54808666D01*
X226260047Y-54951523D01*
X226164809Y-55046761D01*
X226021952Y-55094380D01*
X225926714Y-55094380D01*
X227307666Y-55094380D02*
X226736238Y-55094380D01*
X227021952Y-55094380D02*
X227021952Y-54094380D01*
X226926714Y-54237238D01*
X226831476Y-54332476D01*
X226736238Y-54380095D01*
%TO.C,D2*%
X215102380Y-95988095D02*
X214102380Y-95988095D01*
X214102380Y-95750000D01*
X214150000Y-95607142D01*
X214245238Y-95511904D01*
X214340476Y-95464285D01*
X214530952Y-95416666D01*
X214673809Y-95416666D01*
X214864285Y-95464285D01*
X214959523Y-95511904D01*
X215054761Y-95607142D01*
X215102380Y-95750000D01*
X215102380Y-95988095D01*
X214197619Y-95035714D02*
X214150000Y-94988095D01*
X214102380Y-94892857D01*
X214102380Y-94654761D01*
X214150000Y-94559523D01*
X214197619Y-94511904D01*
X214292857Y-94464285D01*
X214388095Y-94464285D01*
X214530952Y-94511904D01*
X215102380Y-95083333D01*
X215102380Y-94464285D01*
%TO.C,D1*%
X219439379Y-100377096D02*
X218439379Y-100377096D01*
X218439379Y-100139001D01*
X218486999Y-99996143D01*
X218582237Y-99900905D01*
X218677475Y-99853286D01*
X218867951Y-99805667D01*
X219010808Y-99805667D01*
X219201284Y-99853286D01*
X219296522Y-99900905D01*
X219391760Y-99996143D01*
X219439379Y-100139001D01*
X219439379Y-100377096D01*
X219439379Y-98853286D02*
X219439379Y-99424715D01*
X219439379Y-99139001D02*
X218439379Y-99139001D01*
X218582237Y-99234239D01*
X218677475Y-99329477D01*
X218725094Y-99424715D01*
%TO.C,C4*%
X221685142Y-77483166D02*
X221732761Y-77530785D01*
X221780380Y-77673642D01*
X221780380Y-77768880D01*
X221732761Y-77911738D01*
X221637523Y-78006976D01*
X221542285Y-78054595D01*
X221351809Y-78102214D01*
X221208952Y-78102214D01*
X221018476Y-78054595D01*
X220923238Y-78006976D01*
X220828000Y-77911738D01*
X220780380Y-77768880D01*
X220780380Y-77673642D01*
X220828000Y-77530785D01*
X220875619Y-77483166D01*
X221113714Y-76626023D02*
X221780380Y-76626023D01*
X220732761Y-76864119D02*
X221447047Y-77102214D01*
X221447047Y-76483166D01*
%TO.C,C3*%
X222767142Y-94654666D02*
X222814761Y-94702285D01*
X222862380Y-94845142D01*
X222862380Y-94940380D01*
X222814761Y-95083238D01*
X222719523Y-95178476D01*
X222624285Y-95226095D01*
X222433809Y-95273714D01*
X222290952Y-95273714D01*
X222100476Y-95226095D01*
X222005238Y-95178476D01*
X221910000Y-95083238D01*
X221862380Y-94940380D01*
X221862380Y-94845142D01*
X221910000Y-94702285D01*
X221957619Y-94654666D01*
X221862380Y-94321333D02*
X221862380Y-93702285D01*
X222243333Y-94035619D01*
X222243333Y-93892761D01*
X222290952Y-93797523D01*
X222338571Y-93749904D01*
X222433809Y-93702285D01*
X222671904Y-93702285D01*
X222767142Y-93749904D01*
X222814761Y-93797523D01*
X222862380Y-93892761D01*
X222862380Y-94178476D01*
X222814761Y-94273714D01*
X222767142Y-94321333D01*
%TO.C,C2*%
X230895142Y-94654666D02*
X230942761Y-94702285D01*
X230990380Y-94845142D01*
X230990380Y-94940380D01*
X230942761Y-95083238D01*
X230847523Y-95178476D01*
X230752285Y-95226095D01*
X230561809Y-95273714D01*
X230418952Y-95273714D01*
X230228476Y-95226095D01*
X230133238Y-95178476D01*
X230038000Y-95083238D01*
X229990380Y-94940380D01*
X229990380Y-94845142D01*
X230038000Y-94702285D01*
X230085619Y-94654666D01*
X230085619Y-94273714D02*
X230038000Y-94226095D01*
X229990380Y-94130857D01*
X229990380Y-93892761D01*
X230038000Y-93797523D01*
X230085619Y-93749904D01*
X230180857Y-93702285D01*
X230276095Y-93702285D01*
X230418952Y-93749904D01*
X230990380Y-94321333D01*
X230990380Y-93702285D01*
%TO.C,C1*%
X216133142Y-86466666D02*
X216180761Y-86514285D01*
X216228380Y-86657142D01*
X216228380Y-86752380D01*
X216180761Y-86895238D01*
X216085523Y-86990476D01*
X215990285Y-87038095D01*
X215799809Y-87085714D01*
X215656952Y-87085714D01*
X215466476Y-87038095D01*
X215371238Y-86990476D01*
X215276000Y-86895238D01*
X215228380Y-86752380D01*
X215228380Y-86657142D01*
X215276000Y-86514285D01*
X215323619Y-86466666D01*
X216228380Y-85514285D02*
X216228380Y-86085714D01*
X216228380Y-85800000D02*
X215228380Y-85800000D01*
X215371238Y-85895238D01*
X215466476Y-85990476D01*
X215514095Y-86085714D01*
%TD*%
M02*
