%TF.GenerationSoftware,KiCad,Pcbnew,(5.1.9)-1*%
%TF.CreationDate,2022-01-24T16:54:11-08:00*%
%TF.ProjectId,pspMidi,7073704d-6964-4692-9e6b-696361645f70,rev?*%
%TF.SameCoordinates,Original*%
%TF.FileFunction,Soldermask,Top*%
%TF.FilePolarity,Negative*%
%FSLAX46Y46*%
G04 Gerber Fmt 4.6, Leading zero omitted, Abs format (unit mm)*
G04 Created by KiCad (PCBNEW (5.1.9)-1) date 2022-01-24 16:54:11*
%MOMM*%
%LPD*%
G01*
G04 APERTURE LIST*
%ADD10C,3.200000*%
%ADD11R,2.100000X1.800000*%
%ADD12C,1.500000*%
%ADD13C,1.524000*%
%ADD14R,5.200000X5.200000*%
%ADD15C,2.000000*%
%ADD16O,1.700000X1.700000*%
%ADD17R,1.700000X1.700000*%
%ADD18O,0.900000X1.700000*%
%ADD19O,0.900000X2.400000*%
%ADD20C,0.700000*%
G04 APERTURE END LIST*
D10*
%TO.C,REF\u002A\u002A*%
X41000000Y-56000000D03*
%TD*%
%TO.C,REF\u002A\u002A*%
X41000000Y-101000000D03*
%TD*%
%TO.C,REF\u002A\u002A*%
X236000000Y-101000000D03*
%TD*%
%TO.C,REF\u002A\u002A*%
X236000000Y-56000000D03*
%TD*%
%TO.C,C5*%
G36*
G01*
X218423500Y-82579500D02*
X217948500Y-82579500D01*
G75*
G02*
X217711000Y-82342000I0J237500D01*
G01*
X217711000Y-81742000D01*
G75*
G02*
X217948500Y-81504500I237500J0D01*
G01*
X218423500Y-81504500D01*
G75*
G02*
X218661000Y-81742000I0J-237500D01*
G01*
X218661000Y-82342000D01*
G75*
G02*
X218423500Y-82579500I-237500J0D01*
G01*
G37*
G36*
G01*
X218423500Y-84304500D02*
X217948500Y-84304500D01*
G75*
G02*
X217711000Y-84067000I0J237500D01*
G01*
X217711000Y-83467000D01*
G75*
G02*
X217948500Y-83229500I237500J0D01*
G01*
X218423500Y-83229500D01*
G75*
G02*
X218661000Y-83467000I0J-237500D01*
G01*
X218661000Y-84067000D01*
G75*
G02*
X218423500Y-84304500I-237500J0D01*
G01*
G37*
%TD*%
D11*
%TO.C,Y1*%
X226494000Y-95638000D03*
X223594000Y-95638000D03*
X223594000Y-93338000D03*
X226494000Y-93338000D03*
%TD*%
D12*
%TO.C,VR13*%
X197770000Y-81630000D03*
X185770000Y-93630000D03*
D13*
X189770000Y-96230000D03*
X191770000Y-96230000D03*
X193770000Y-96230000D03*
X200370000Y-89630000D03*
X200370000Y-87630000D03*
X200370000Y-85630000D03*
%TD*%
D12*
%TO.C,VR12*%
X177450000Y-81630000D03*
X165450000Y-93630000D03*
D13*
X169450000Y-96230000D03*
X171450000Y-96230000D03*
X173450000Y-96230000D03*
X180050000Y-89630000D03*
X180050000Y-87630000D03*
X180050000Y-85630000D03*
%TD*%
D12*
%TO.C,VR11*%
X157130000Y-81630000D03*
X145130000Y-93630000D03*
D13*
X149130000Y-96230000D03*
X151130000Y-96230000D03*
X153130000Y-96230000D03*
X159730000Y-89630000D03*
X159730000Y-87630000D03*
X159730000Y-85630000D03*
%TD*%
D12*
%TO.C,VR10*%
X136810000Y-81630000D03*
X124810000Y-93630000D03*
D13*
X128810000Y-96230000D03*
X130810000Y-96230000D03*
X132810000Y-96230000D03*
X139410000Y-89630000D03*
X139410000Y-87630000D03*
X139410000Y-85630000D03*
%TD*%
D12*
%TO.C,VR9*%
X117252000Y-81630000D03*
X105252000Y-93630000D03*
D13*
X109252000Y-96230000D03*
X111252000Y-96230000D03*
X113252000Y-96230000D03*
X119852000Y-89630000D03*
X119852000Y-87630000D03*
X119852000Y-85630000D03*
%TD*%
D12*
%TO.C,VR8*%
X97948000Y-81630000D03*
X85948000Y-93630000D03*
D13*
X89948000Y-96230000D03*
X91948000Y-96230000D03*
X93948000Y-96230000D03*
X100548000Y-89630000D03*
X100548000Y-87630000D03*
X100548000Y-85630000D03*
%TD*%
D12*
%TO.C,VR7*%
X78390000Y-81630000D03*
X66390000Y-93630000D03*
D13*
X70390000Y-96230000D03*
X72390000Y-96230000D03*
X74390000Y-96230000D03*
X80990000Y-89630000D03*
X80990000Y-87630000D03*
X80990000Y-85630000D03*
%TD*%
D12*
%TO.C,VR6*%
X58070000Y-81630000D03*
X46070000Y-93630000D03*
D13*
X50070000Y-96230000D03*
X52070000Y-96230000D03*
X54070000Y-96230000D03*
X60670000Y-89630000D03*
X60670000Y-87630000D03*
X60670000Y-85630000D03*
%TD*%
D12*
%TO.C,VR5*%
X165512000Y-57500000D03*
X153512000Y-69500000D03*
D13*
X157512000Y-72100000D03*
X159512000Y-72100000D03*
X161512000Y-72100000D03*
X168112000Y-65500000D03*
X168112000Y-63500000D03*
X168112000Y-61500000D03*
%TD*%
D12*
%TO.C,VR4*%
X146208000Y-57500000D03*
X134208000Y-69500000D03*
D13*
X138208000Y-72100000D03*
X140208000Y-72100000D03*
X142208000Y-72100000D03*
X148808000Y-65500000D03*
X148808000Y-63500000D03*
X148808000Y-61500000D03*
%TD*%
D12*
%TO.C,VR3*%
X126904000Y-57500000D03*
X114904000Y-69500000D03*
D13*
X118904000Y-72100000D03*
X120904000Y-72100000D03*
X122904000Y-72100000D03*
X129504000Y-65500000D03*
X129504000Y-63500000D03*
X129504000Y-61500000D03*
%TD*%
D12*
%TO.C,VR2*%
X88296000Y-57500000D03*
X76296000Y-69500000D03*
D13*
X80296000Y-72100000D03*
X82296000Y-72100000D03*
X84296000Y-72100000D03*
X90896000Y-65500000D03*
X90896000Y-63500000D03*
X90896000Y-61500000D03*
%TD*%
D12*
%TO.C,VR1*%
X69166001Y-57500000D03*
X57166001Y-69500000D03*
D13*
X61166001Y-72100000D03*
X63166001Y-72100000D03*
X65166001Y-72100000D03*
X71766001Y-65500000D03*
X71766001Y-63500000D03*
X71766001Y-61500000D03*
%TD*%
%TO.C,U3*%
G36*
G01*
X193363000Y-55649000D02*
X193363000Y-55349000D01*
G75*
G02*
X193513000Y-55199000I150000J0D01*
G01*
X195263000Y-55199000D01*
G75*
G02*
X195413000Y-55349000I0J-150000D01*
G01*
X195413000Y-55649000D01*
G75*
G02*
X195263000Y-55799000I-150000J0D01*
G01*
X193513000Y-55799000D01*
G75*
G02*
X193363000Y-55649000I0J150000D01*
G01*
G37*
G36*
G01*
X193363000Y-56919000D02*
X193363000Y-56619000D01*
G75*
G02*
X193513000Y-56469000I150000J0D01*
G01*
X195263000Y-56469000D01*
G75*
G02*
X195413000Y-56619000I0J-150000D01*
G01*
X195413000Y-56919000D01*
G75*
G02*
X195263000Y-57069000I-150000J0D01*
G01*
X193513000Y-57069000D01*
G75*
G02*
X193363000Y-56919000I0J150000D01*
G01*
G37*
G36*
G01*
X193363000Y-58189000D02*
X193363000Y-57889000D01*
G75*
G02*
X193513000Y-57739000I150000J0D01*
G01*
X195263000Y-57739000D01*
G75*
G02*
X195413000Y-57889000I0J-150000D01*
G01*
X195413000Y-58189000D01*
G75*
G02*
X195263000Y-58339000I-150000J0D01*
G01*
X193513000Y-58339000D01*
G75*
G02*
X193363000Y-58189000I0J150000D01*
G01*
G37*
G36*
G01*
X193363000Y-59459000D02*
X193363000Y-59159000D01*
G75*
G02*
X193513000Y-59009000I150000J0D01*
G01*
X195263000Y-59009000D01*
G75*
G02*
X195413000Y-59159000I0J-150000D01*
G01*
X195413000Y-59459000D01*
G75*
G02*
X195263000Y-59609000I-150000J0D01*
G01*
X193513000Y-59609000D01*
G75*
G02*
X193363000Y-59459000I0J150000D01*
G01*
G37*
G36*
G01*
X193363000Y-60729000D02*
X193363000Y-60429000D01*
G75*
G02*
X193513000Y-60279000I150000J0D01*
G01*
X195263000Y-60279000D01*
G75*
G02*
X195413000Y-60429000I0J-150000D01*
G01*
X195413000Y-60729000D01*
G75*
G02*
X195263000Y-60879000I-150000J0D01*
G01*
X193513000Y-60879000D01*
G75*
G02*
X193363000Y-60729000I0J150000D01*
G01*
G37*
G36*
G01*
X193363000Y-61999000D02*
X193363000Y-61699000D01*
G75*
G02*
X193513000Y-61549000I150000J0D01*
G01*
X195263000Y-61549000D01*
G75*
G02*
X195413000Y-61699000I0J-150000D01*
G01*
X195413000Y-61999000D01*
G75*
G02*
X195263000Y-62149000I-150000J0D01*
G01*
X193513000Y-62149000D01*
G75*
G02*
X193363000Y-61999000I0J150000D01*
G01*
G37*
G36*
G01*
X193363000Y-63269000D02*
X193363000Y-62969000D01*
G75*
G02*
X193513000Y-62819000I150000J0D01*
G01*
X195263000Y-62819000D01*
G75*
G02*
X195413000Y-62969000I0J-150000D01*
G01*
X195413000Y-63269000D01*
G75*
G02*
X195263000Y-63419000I-150000J0D01*
G01*
X193513000Y-63419000D01*
G75*
G02*
X193363000Y-63269000I0J150000D01*
G01*
G37*
G36*
G01*
X193363000Y-64539000D02*
X193363000Y-64239000D01*
G75*
G02*
X193513000Y-64089000I150000J0D01*
G01*
X195263000Y-64089000D01*
G75*
G02*
X195413000Y-64239000I0J-150000D01*
G01*
X195413000Y-64539000D01*
G75*
G02*
X195263000Y-64689000I-150000J0D01*
G01*
X193513000Y-64689000D01*
G75*
G02*
X193363000Y-64539000I0J150000D01*
G01*
G37*
G36*
G01*
X193363000Y-65809000D02*
X193363000Y-65509000D01*
G75*
G02*
X193513000Y-65359000I150000J0D01*
G01*
X195263000Y-65359000D01*
G75*
G02*
X195413000Y-65509000I0J-150000D01*
G01*
X195413000Y-65809000D01*
G75*
G02*
X195263000Y-65959000I-150000J0D01*
G01*
X193513000Y-65959000D01*
G75*
G02*
X193363000Y-65809000I0J150000D01*
G01*
G37*
G36*
G01*
X193363000Y-67079000D02*
X193363000Y-66779000D01*
G75*
G02*
X193513000Y-66629000I150000J0D01*
G01*
X195263000Y-66629000D01*
G75*
G02*
X195413000Y-66779000I0J-150000D01*
G01*
X195413000Y-67079000D01*
G75*
G02*
X195263000Y-67229000I-150000J0D01*
G01*
X193513000Y-67229000D01*
G75*
G02*
X193363000Y-67079000I0J150000D01*
G01*
G37*
G36*
G01*
X193363000Y-68349000D02*
X193363000Y-68049000D01*
G75*
G02*
X193513000Y-67899000I150000J0D01*
G01*
X195263000Y-67899000D01*
G75*
G02*
X195413000Y-68049000I0J-150000D01*
G01*
X195413000Y-68349000D01*
G75*
G02*
X195263000Y-68499000I-150000J0D01*
G01*
X193513000Y-68499000D01*
G75*
G02*
X193363000Y-68349000I0J150000D01*
G01*
G37*
G36*
G01*
X193363000Y-69619000D02*
X193363000Y-69319000D01*
G75*
G02*
X193513000Y-69169000I150000J0D01*
G01*
X195263000Y-69169000D01*
G75*
G02*
X195413000Y-69319000I0J-150000D01*
G01*
X195413000Y-69619000D01*
G75*
G02*
X195263000Y-69769000I-150000J0D01*
G01*
X193513000Y-69769000D01*
G75*
G02*
X193363000Y-69619000I0J150000D01*
G01*
G37*
G36*
G01*
X184063000Y-69619000D02*
X184063000Y-69319000D01*
G75*
G02*
X184213000Y-69169000I150000J0D01*
G01*
X185963000Y-69169000D01*
G75*
G02*
X186113000Y-69319000I0J-150000D01*
G01*
X186113000Y-69619000D01*
G75*
G02*
X185963000Y-69769000I-150000J0D01*
G01*
X184213000Y-69769000D01*
G75*
G02*
X184063000Y-69619000I0J150000D01*
G01*
G37*
G36*
G01*
X184063000Y-68349000D02*
X184063000Y-68049000D01*
G75*
G02*
X184213000Y-67899000I150000J0D01*
G01*
X185963000Y-67899000D01*
G75*
G02*
X186113000Y-68049000I0J-150000D01*
G01*
X186113000Y-68349000D01*
G75*
G02*
X185963000Y-68499000I-150000J0D01*
G01*
X184213000Y-68499000D01*
G75*
G02*
X184063000Y-68349000I0J150000D01*
G01*
G37*
G36*
G01*
X184063000Y-67079000D02*
X184063000Y-66779000D01*
G75*
G02*
X184213000Y-66629000I150000J0D01*
G01*
X185963000Y-66629000D01*
G75*
G02*
X186113000Y-66779000I0J-150000D01*
G01*
X186113000Y-67079000D01*
G75*
G02*
X185963000Y-67229000I-150000J0D01*
G01*
X184213000Y-67229000D01*
G75*
G02*
X184063000Y-67079000I0J150000D01*
G01*
G37*
G36*
G01*
X184063000Y-65809000D02*
X184063000Y-65509000D01*
G75*
G02*
X184213000Y-65359000I150000J0D01*
G01*
X185963000Y-65359000D01*
G75*
G02*
X186113000Y-65509000I0J-150000D01*
G01*
X186113000Y-65809000D01*
G75*
G02*
X185963000Y-65959000I-150000J0D01*
G01*
X184213000Y-65959000D01*
G75*
G02*
X184063000Y-65809000I0J150000D01*
G01*
G37*
G36*
G01*
X184063000Y-64539000D02*
X184063000Y-64239000D01*
G75*
G02*
X184213000Y-64089000I150000J0D01*
G01*
X185963000Y-64089000D01*
G75*
G02*
X186113000Y-64239000I0J-150000D01*
G01*
X186113000Y-64539000D01*
G75*
G02*
X185963000Y-64689000I-150000J0D01*
G01*
X184213000Y-64689000D01*
G75*
G02*
X184063000Y-64539000I0J150000D01*
G01*
G37*
G36*
G01*
X184063000Y-63269000D02*
X184063000Y-62969000D01*
G75*
G02*
X184213000Y-62819000I150000J0D01*
G01*
X185963000Y-62819000D01*
G75*
G02*
X186113000Y-62969000I0J-150000D01*
G01*
X186113000Y-63269000D01*
G75*
G02*
X185963000Y-63419000I-150000J0D01*
G01*
X184213000Y-63419000D01*
G75*
G02*
X184063000Y-63269000I0J150000D01*
G01*
G37*
G36*
G01*
X184063000Y-61999000D02*
X184063000Y-61699000D01*
G75*
G02*
X184213000Y-61549000I150000J0D01*
G01*
X185963000Y-61549000D01*
G75*
G02*
X186113000Y-61699000I0J-150000D01*
G01*
X186113000Y-61999000D01*
G75*
G02*
X185963000Y-62149000I-150000J0D01*
G01*
X184213000Y-62149000D01*
G75*
G02*
X184063000Y-61999000I0J150000D01*
G01*
G37*
G36*
G01*
X184063000Y-60729000D02*
X184063000Y-60429000D01*
G75*
G02*
X184213000Y-60279000I150000J0D01*
G01*
X185963000Y-60279000D01*
G75*
G02*
X186113000Y-60429000I0J-150000D01*
G01*
X186113000Y-60729000D01*
G75*
G02*
X185963000Y-60879000I-150000J0D01*
G01*
X184213000Y-60879000D01*
G75*
G02*
X184063000Y-60729000I0J150000D01*
G01*
G37*
G36*
G01*
X184063000Y-59459000D02*
X184063000Y-59159000D01*
G75*
G02*
X184213000Y-59009000I150000J0D01*
G01*
X185963000Y-59009000D01*
G75*
G02*
X186113000Y-59159000I0J-150000D01*
G01*
X186113000Y-59459000D01*
G75*
G02*
X185963000Y-59609000I-150000J0D01*
G01*
X184213000Y-59609000D01*
G75*
G02*
X184063000Y-59459000I0J150000D01*
G01*
G37*
G36*
G01*
X184063000Y-58189000D02*
X184063000Y-57889000D01*
G75*
G02*
X184213000Y-57739000I150000J0D01*
G01*
X185963000Y-57739000D01*
G75*
G02*
X186113000Y-57889000I0J-150000D01*
G01*
X186113000Y-58189000D01*
G75*
G02*
X185963000Y-58339000I-150000J0D01*
G01*
X184213000Y-58339000D01*
G75*
G02*
X184063000Y-58189000I0J150000D01*
G01*
G37*
G36*
G01*
X184063000Y-56919000D02*
X184063000Y-56619000D01*
G75*
G02*
X184213000Y-56469000I150000J0D01*
G01*
X185963000Y-56469000D01*
G75*
G02*
X186113000Y-56619000I0J-150000D01*
G01*
X186113000Y-56919000D01*
G75*
G02*
X185963000Y-57069000I-150000J0D01*
G01*
X184213000Y-57069000D01*
G75*
G02*
X184063000Y-56919000I0J150000D01*
G01*
G37*
G36*
G01*
X184063000Y-55649000D02*
X184063000Y-55349000D01*
G75*
G02*
X184213000Y-55199000I150000J0D01*
G01*
X185963000Y-55199000D01*
G75*
G02*
X186113000Y-55349000I0J-150000D01*
G01*
X186113000Y-55649000D01*
G75*
G02*
X185963000Y-55799000I-150000J0D01*
G01*
X184213000Y-55799000D01*
G75*
G02*
X184063000Y-55649000I0J150000D01*
G01*
G37*
%TD*%
%TO.C,U2*%
G36*
G01*
X212413000Y-55649000D02*
X212413000Y-55349000D01*
G75*
G02*
X212563000Y-55199000I150000J0D01*
G01*
X214313000Y-55199000D01*
G75*
G02*
X214463000Y-55349000I0J-150000D01*
G01*
X214463000Y-55649000D01*
G75*
G02*
X214313000Y-55799000I-150000J0D01*
G01*
X212563000Y-55799000D01*
G75*
G02*
X212413000Y-55649000I0J150000D01*
G01*
G37*
G36*
G01*
X212413000Y-56919000D02*
X212413000Y-56619000D01*
G75*
G02*
X212563000Y-56469000I150000J0D01*
G01*
X214313000Y-56469000D01*
G75*
G02*
X214463000Y-56619000I0J-150000D01*
G01*
X214463000Y-56919000D01*
G75*
G02*
X214313000Y-57069000I-150000J0D01*
G01*
X212563000Y-57069000D01*
G75*
G02*
X212413000Y-56919000I0J150000D01*
G01*
G37*
G36*
G01*
X212413000Y-58189000D02*
X212413000Y-57889000D01*
G75*
G02*
X212563000Y-57739000I150000J0D01*
G01*
X214313000Y-57739000D01*
G75*
G02*
X214463000Y-57889000I0J-150000D01*
G01*
X214463000Y-58189000D01*
G75*
G02*
X214313000Y-58339000I-150000J0D01*
G01*
X212563000Y-58339000D01*
G75*
G02*
X212413000Y-58189000I0J150000D01*
G01*
G37*
G36*
G01*
X212413000Y-59459000D02*
X212413000Y-59159000D01*
G75*
G02*
X212563000Y-59009000I150000J0D01*
G01*
X214313000Y-59009000D01*
G75*
G02*
X214463000Y-59159000I0J-150000D01*
G01*
X214463000Y-59459000D01*
G75*
G02*
X214313000Y-59609000I-150000J0D01*
G01*
X212563000Y-59609000D01*
G75*
G02*
X212413000Y-59459000I0J150000D01*
G01*
G37*
G36*
G01*
X212413000Y-60729000D02*
X212413000Y-60429000D01*
G75*
G02*
X212563000Y-60279000I150000J0D01*
G01*
X214313000Y-60279000D01*
G75*
G02*
X214463000Y-60429000I0J-150000D01*
G01*
X214463000Y-60729000D01*
G75*
G02*
X214313000Y-60879000I-150000J0D01*
G01*
X212563000Y-60879000D01*
G75*
G02*
X212413000Y-60729000I0J150000D01*
G01*
G37*
G36*
G01*
X212413000Y-61999000D02*
X212413000Y-61699000D01*
G75*
G02*
X212563000Y-61549000I150000J0D01*
G01*
X214313000Y-61549000D01*
G75*
G02*
X214463000Y-61699000I0J-150000D01*
G01*
X214463000Y-61999000D01*
G75*
G02*
X214313000Y-62149000I-150000J0D01*
G01*
X212563000Y-62149000D01*
G75*
G02*
X212413000Y-61999000I0J150000D01*
G01*
G37*
G36*
G01*
X212413000Y-63269000D02*
X212413000Y-62969000D01*
G75*
G02*
X212563000Y-62819000I150000J0D01*
G01*
X214313000Y-62819000D01*
G75*
G02*
X214463000Y-62969000I0J-150000D01*
G01*
X214463000Y-63269000D01*
G75*
G02*
X214313000Y-63419000I-150000J0D01*
G01*
X212563000Y-63419000D01*
G75*
G02*
X212413000Y-63269000I0J150000D01*
G01*
G37*
G36*
G01*
X212413000Y-64539000D02*
X212413000Y-64239000D01*
G75*
G02*
X212563000Y-64089000I150000J0D01*
G01*
X214313000Y-64089000D01*
G75*
G02*
X214463000Y-64239000I0J-150000D01*
G01*
X214463000Y-64539000D01*
G75*
G02*
X214313000Y-64689000I-150000J0D01*
G01*
X212563000Y-64689000D01*
G75*
G02*
X212413000Y-64539000I0J150000D01*
G01*
G37*
G36*
G01*
X212413000Y-65809000D02*
X212413000Y-65509000D01*
G75*
G02*
X212563000Y-65359000I150000J0D01*
G01*
X214313000Y-65359000D01*
G75*
G02*
X214463000Y-65509000I0J-150000D01*
G01*
X214463000Y-65809000D01*
G75*
G02*
X214313000Y-65959000I-150000J0D01*
G01*
X212563000Y-65959000D01*
G75*
G02*
X212413000Y-65809000I0J150000D01*
G01*
G37*
G36*
G01*
X212413000Y-67079000D02*
X212413000Y-66779000D01*
G75*
G02*
X212563000Y-66629000I150000J0D01*
G01*
X214313000Y-66629000D01*
G75*
G02*
X214463000Y-66779000I0J-150000D01*
G01*
X214463000Y-67079000D01*
G75*
G02*
X214313000Y-67229000I-150000J0D01*
G01*
X212563000Y-67229000D01*
G75*
G02*
X212413000Y-67079000I0J150000D01*
G01*
G37*
G36*
G01*
X212413000Y-68349000D02*
X212413000Y-68049000D01*
G75*
G02*
X212563000Y-67899000I150000J0D01*
G01*
X214313000Y-67899000D01*
G75*
G02*
X214463000Y-68049000I0J-150000D01*
G01*
X214463000Y-68349000D01*
G75*
G02*
X214313000Y-68499000I-150000J0D01*
G01*
X212563000Y-68499000D01*
G75*
G02*
X212413000Y-68349000I0J150000D01*
G01*
G37*
G36*
G01*
X212413000Y-69619000D02*
X212413000Y-69319000D01*
G75*
G02*
X212563000Y-69169000I150000J0D01*
G01*
X214313000Y-69169000D01*
G75*
G02*
X214463000Y-69319000I0J-150000D01*
G01*
X214463000Y-69619000D01*
G75*
G02*
X214313000Y-69769000I-150000J0D01*
G01*
X212563000Y-69769000D01*
G75*
G02*
X212413000Y-69619000I0J150000D01*
G01*
G37*
G36*
G01*
X203113000Y-69619000D02*
X203113000Y-69319000D01*
G75*
G02*
X203263000Y-69169000I150000J0D01*
G01*
X205013000Y-69169000D01*
G75*
G02*
X205163000Y-69319000I0J-150000D01*
G01*
X205163000Y-69619000D01*
G75*
G02*
X205013000Y-69769000I-150000J0D01*
G01*
X203263000Y-69769000D01*
G75*
G02*
X203113000Y-69619000I0J150000D01*
G01*
G37*
G36*
G01*
X203113000Y-68349000D02*
X203113000Y-68049000D01*
G75*
G02*
X203263000Y-67899000I150000J0D01*
G01*
X205013000Y-67899000D01*
G75*
G02*
X205163000Y-68049000I0J-150000D01*
G01*
X205163000Y-68349000D01*
G75*
G02*
X205013000Y-68499000I-150000J0D01*
G01*
X203263000Y-68499000D01*
G75*
G02*
X203113000Y-68349000I0J150000D01*
G01*
G37*
G36*
G01*
X203113000Y-67079000D02*
X203113000Y-66779000D01*
G75*
G02*
X203263000Y-66629000I150000J0D01*
G01*
X205013000Y-66629000D01*
G75*
G02*
X205163000Y-66779000I0J-150000D01*
G01*
X205163000Y-67079000D01*
G75*
G02*
X205013000Y-67229000I-150000J0D01*
G01*
X203263000Y-67229000D01*
G75*
G02*
X203113000Y-67079000I0J150000D01*
G01*
G37*
G36*
G01*
X203113000Y-65809000D02*
X203113000Y-65509000D01*
G75*
G02*
X203263000Y-65359000I150000J0D01*
G01*
X205013000Y-65359000D01*
G75*
G02*
X205163000Y-65509000I0J-150000D01*
G01*
X205163000Y-65809000D01*
G75*
G02*
X205013000Y-65959000I-150000J0D01*
G01*
X203263000Y-65959000D01*
G75*
G02*
X203113000Y-65809000I0J150000D01*
G01*
G37*
G36*
G01*
X203113000Y-64539000D02*
X203113000Y-64239000D01*
G75*
G02*
X203263000Y-64089000I150000J0D01*
G01*
X205013000Y-64089000D01*
G75*
G02*
X205163000Y-64239000I0J-150000D01*
G01*
X205163000Y-64539000D01*
G75*
G02*
X205013000Y-64689000I-150000J0D01*
G01*
X203263000Y-64689000D01*
G75*
G02*
X203113000Y-64539000I0J150000D01*
G01*
G37*
G36*
G01*
X203113000Y-63269000D02*
X203113000Y-62969000D01*
G75*
G02*
X203263000Y-62819000I150000J0D01*
G01*
X205013000Y-62819000D01*
G75*
G02*
X205163000Y-62969000I0J-150000D01*
G01*
X205163000Y-63269000D01*
G75*
G02*
X205013000Y-63419000I-150000J0D01*
G01*
X203263000Y-63419000D01*
G75*
G02*
X203113000Y-63269000I0J150000D01*
G01*
G37*
G36*
G01*
X203113000Y-61999000D02*
X203113000Y-61699000D01*
G75*
G02*
X203263000Y-61549000I150000J0D01*
G01*
X205013000Y-61549000D01*
G75*
G02*
X205163000Y-61699000I0J-150000D01*
G01*
X205163000Y-61999000D01*
G75*
G02*
X205013000Y-62149000I-150000J0D01*
G01*
X203263000Y-62149000D01*
G75*
G02*
X203113000Y-61999000I0J150000D01*
G01*
G37*
G36*
G01*
X203113000Y-60729000D02*
X203113000Y-60429000D01*
G75*
G02*
X203263000Y-60279000I150000J0D01*
G01*
X205013000Y-60279000D01*
G75*
G02*
X205163000Y-60429000I0J-150000D01*
G01*
X205163000Y-60729000D01*
G75*
G02*
X205013000Y-60879000I-150000J0D01*
G01*
X203263000Y-60879000D01*
G75*
G02*
X203113000Y-60729000I0J150000D01*
G01*
G37*
G36*
G01*
X203113000Y-59459000D02*
X203113000Y-59159000D01*
G75*
G02*
X203263000Y-59009000I150000J0D01*
G01*
X205013000Y-59009000D01*
G75*
G02*
X205163000Y-59159000I0J-150000D01*
G01*
X205163000Y-59459000D01*
G75*
G02*
X205013000Y-59609000I-150000J0D01*
G01*
X203263000Y-59609000D01*
G75*
G02*
X203113000Y-59459000I0J150000D01*
G01*
G37*
G36*
G01*
X203113000Y-58189000D02*
X203113000Y-57889000D01*
G75*
G02*
X203263000Y-57739000I150000J0D01*
G01*
X205013000Y-57739000D01*
G75*
G02*
X205163000Y-57889000I0J-150000D01*
G01*
X205163000Y-58189000D01*
G75*
G02*
X205013000Y-58339000I-150000J0D01*
G01*
X203263000Y-58339000D01*
G75*
G02*
X203113000Y-58189000I0J150000D01*
G01*
G37*
G36*
G01*
X203113000Y-56919000D02*
X203113000Y-56619000D01*
G75*
G02*
X203263000Y-56469000I150000J0D01*
G01*
X205013000Y-56469000D01*
G75*
G02*
X205163000Y-56619000I0J-150000D01*
G01*
X205163000Y-56919000D01*
G75*
G02*
X205013000Y-57069000I-150000J0D01*
G01*
X203263000Y-57069000D01*
G75*
G02*
X203113000Y-56919000I0J150000D01*
G01*
G37*
G36*
G01*
X203113000Y-55649000D02*
X203113000Y-55349000D01*
G75*
G02*
X203263000Y-55199000I150000J0D01*
G01*
X205013000Y-55199000D01*
G75*
G02*
X205163000Y-55349000I0J-150000D01*
G01*
X205163000Y-55649000D01*
G75*
G02*
X205013000Y-55799000I-150000J0D01*
G01*
X203263000Y-55799000D01*
G75*
G02*
X203113000Y-55649000I0J150000D01*
G01*
G37*
%TD*%
D14*
%TO.C,U1*%
X225186000Y-84470000D03*
G36*
G01*
X222561000Y-81607500D02*
X222561000Y-80657500D01*
G75*
G02*
X222623500Y-80595000I62500J0D01*
G01*
X222748500Y-80595000D01*
G75*
G02*
X222811000Y-80657500I0J-62500D01*
G01*
X222811000Y-81607500D01*
G75*
G02*
X222748500Y-81670000I-62500J0D01*
G01*
X222623500Y-81670000D01*
G75*
G02*
X222561000Y-81607500I0J62500D01*
G01*
G37*
G36*
G01*
X223061000Y-81607500D02*
X223061000Y-80657500D01*
G75*
G02*
X223123500Y-80595000I62500J0D01*
G01*
X223248500Y-80595000D01*
G75*
G02*
X223311000Y-80657500I0J-62500D01*
G01*
X223311000Y-81607500D01*
G75*
G02*
X223248500Y-81670000I-62500J0D01*
G01*
X223123500Y-81670000D01*
G75*
G02*
X223061000Y-81607500I0J62500D01*
G01*
G37*
G36*
G01*
X223561000Y-81607500D02*
X223561000Y-80657500D01*
G75*
G02*
X223623500Y-80595000I62500J0D01*
G01*
X223748500Y-80595000D01*
G75*
G02*
X223811000Y-80657500I0J-62500D01*
G01*
X223811000Y-81607500D01*
G75*
G02*
X223748500Y-81670000I-62500J0D01*
G01*
X223623500Y-81670000D01*
G75*
G02*
X223561000Y-81607500I0J62500D01*
G01*
G37*
G36*
G01*
X224061000Y-81607500D02*
X224061000Y-80657500D01*
G75*
G02*
X224123500Y-80595000I62500J0D01*
G01*
X224248500Y-80595000D01*
G75*
G02*
X224311000Y-80657500I0J-62500D01*
G01*
X224311000Y-81607500D01*
G75*
G02*
X224248500Y-81670000I-62500J0D01*
G01*
X224123500Y-81670000D01*
G75*
G02*
X224061000Y-81607500I0J62500D01*
G01*
G37*
G36*
G01*
X224561000Y-81607500D02*
X224561000Y-80657500D01*
G75*
G02*
X224623500Y-80595000I62500J0D01*
G01*
X224748500Y-80595000D01*
G75*
G02*
X224811000Y-80657500I0J-62500D01*
G01*
X224811000Y-81607500D01*
G75*
G02*
X224748500Y-81670000I-62500J0D01*
G01*
X224623500Y-81670000D01*
G75*
G02*
X224561000Y-81607500I0J62500D01*
G01*
G37*
G36*
G01*
X225061000Y-81607500D02*
X225061000Y-80657500D01*
G75*
G02*
X225123500Y-80595000I62500J0D01*
G01*
X225248500Y-80595000D01*
G75*
G02*
X225311000Y-80657500I0J-62500D01*
G01*
X225311000Y-81607500D01*
G75*
G02*
X225248500Y-81670000I-62500J0D01*
G01*
X225123500Y-81670000D01*
G75*
G02*
X225061000Y-81607500I0J62500D01*
G01*
G37*
G36*
G01*
X225561000Y-81607500D02*
X225561000Y-80657500D01*
G75*
G02*
X225623500Y-80595000I62500J0D01*
G01*
X225748500Y-80595000D01*
G75*
G02*
X225811000Y-80657500I0J-62500D01*
G01*
X225811000Y-81607500D01*
G75*
G02*
X225748500Y-81670000I-62500J0D01*
G01*
X225623500Y-81670000D01*
G75*
G02*
X225561000Y-81607500I0J62500D01*
G01*
G37*
G36*
G01*
X226061000Y-81607500D02*
X226061000Y-80657500D01*
G75*
G02*
X226123500Y-80595000I62500J0D01*
G01*
X226248500Y-80595000D01*
G75*
G02*
X226311000Y-80657500I0J-62500D01*
G01*
X226311000Y-81607500D01*
G75*
G02*
X226248500Y-81670000I-62500J0D01*
G01*
X226123500Y-81670000D01*
G75*
G02*
X226061000Y-81607500I0J62500D01*
G01*
G37*
G36*
G01*
X226561000Y-81607500D02*
X226561000Y-80657500D01*
G75*
G02*
X226623500Y-80595000I62500J0D01*
G01*
X226748500Y-80595000D01*
G75*
G02*
X226811000Y-80657500I0J-62500D01*
G01*
X226811000Y-81607500D01*
G75*
G02*
X226748500Y-81670000I-62500J0D01*
G01*
X226623500Y-81670000D01*
G75*
G02*
X226561000Y-81607500I0J62500D01*
G01*
G37*
G36*
G01*
X227061000Y-81607500D02*
X227061000Y-80657500D01*
G75*
G02*
X227123500Y-80595000I62500J0D01*
G01*
X227248500Y-80595000D01*
G75*
G02*
X227311000Y-80657500I0J-62500D01*
G01*
X227311000Y-81607500D01*
G75*
G02*
X227248500Y-81670000I-62500J0D01*
G01*
X227123500Y-81670000D01*
G75*
G02*
X227061000Y-81607500I0J62500D01*
G01*
G37*
G36*
G01*
X227561000Y-81607500D02*
X227561000Y-80657500D01*
G75*
G02*
X227623500Y-80595000I62500J0D01*
G01*
X227748500Y-80595000D01*
G75*
G02*
X227811000Y-80657500I0J-62500D01*
G01*
X227811000Y-81607500D01*
G75*
G02*
X227748500Y-81670000I-62500J0D01*
G01*
X227623500Y-81670000D01*
G75*
G02*
X227561000Y-81607500I0J62500D01*
G01*
G37*
G36*
G01*
X227986000Y-82032500D02*
X227986000Y-81907500D01*
G75*
G02*
X228048500Y-81845000I62500J0D01*
G01*
X228998500Y-81845000D01*
G75*
G02*
X229061000Y-81907500I0J-62500D01*
G01*
X229061000Y-82032500D01*
G75*
G02*
X228998500Y-82095000I-62500J0D01*
G01*
X228048500Y-82095000D01*
G75*
G02*
X227986000Y-82032500I0J62500D01*
G01*
G37*
G36*
G01*
X227986000Y-82532500D02*
X227986000Y-82407500D01*
G75*
G02*
X228048500Y-82345000I62500J0D01*
G01*
X228998500Y-82345000D01*
G75*
G02*
X229061000Y-82407500I0J-62500D01*
G01*
X229061000Y-82532500D01*
G75*
G02*
X228998500Y-82595000I-62500J0D01*
G01*
X228048500Y-82595000D01*
G75*
G02*
X227986000Y-82532500I0J62500D01*
G01*
G37*
G36*
G01*
X227986000Y-83032500D02*
X227986000Y-82907500D01*
G75*
G02*
X228048500Y-82845000I62500J0D01*
G01*
X228998500Y-82845000D01*
G75*
G02*
X229061000Y-82907500I0J-62500D01*
G01*
X229061000Y-83032500D01*
G75*
G02*
X228998500Y-83095000I-62500J0D01*
G01*
X228048500Y-83095000D01*
G75*
G02*
X227986000Y-83032500I0J62500D01*
G01*
G37*
G36*
G01*
X227986000Y-83532500D02*
X227986000Y-83407500D01*
G75*
G02*
X228048500Y-83345000I62500J0D01*
G01*
X228998500Y-83345000D01*
G75*
G02*
X229061000Y-83407500I0J-62500D01*
G01*
X229061000Y-83532500D01*
G75*
G02*
X228998500Y-83595000I-62500J0D01*
G01*
X228048500Y-83595000D01*
G75*
G02*
X227986000Y-83532500I0J62500D01*
G01*
G37*
G36*
G01*
X227986000Y-84032500D02*
X227986000Y-83907500D01*
G75*
G02*
X228048500Y-83845000I62500J0D01*
G01*
X228998500Y-83845000D01*
G75*
G02*
X229061000Y-83907500I0J-62500D01*
G01*
X229061000Y-84032500D01*
G75*
G02*
X228998500Y-84095000I-62500J0D01*
G01*
X228048500Y-84095000D01*
G75*
G02*
X227986000Y-84032500I0J62500D01*
G01*
G37*
G36*
G01*
X227986000Y-84532500D02*
X227986000Y-84407500D01*
G75*
G02*
X228048500Y-84345000I62500J0D01*
G01*
X228998500Y-84345000D01*
G75*
G02*
X229061000Y-84407500I0J-62500D01*
G01*
X229061000Y-84532500D01*
G75*
G02*
X228998500Y-84595000I-62500J0D01*
G01*
X228048500Y-84595000D01*
G75*
G02*
X227986000Y-84532500I0J62500D01*
G01*
G37*
G36*
G01*
X227986000Y-85032500D02*
X227986000Y-84907500D01*
G75*
G02*
X228048500Y-84845000I62500J0D01*
G01*
X228998500Y-84845000D01*
G75*
G02*
X229061000Y-84907500I0J-62500D01*
G01*
X229061000Y-85032500D01*
G75*
G02*
X228998500Y-85095000I-62500J0D01*
G01*
X228048500Y-85095000D01*
G75*
G02*
X227986000Y-85032500I0J62500D01*
G01*
G37*
G36*
G01*
X227986000Y-85532500D02*
X227986000Y-85407500D01*
G75*
G02*
X228048500Y-85345000I62500J0D01*
G01*
X228998500Y-85345000D01*
G75*
G02*
X229061000Y-85407500I0J-62500D01*
G01*
X229061000Y-85532500D01*
G75*
G02*
X228998500Y-85595000I-62500J0D01*
G01*
X228048500Y-85595000D01*
G75*
G02*
X227986000Y-85532500I0J62500D01*
G01*
G37*
G36*
G01*
X227986000Y-86032500D02*
X227986000Y-85907500D01*
G75*
G02*
X228048500Y-85845000I62500J0D01*
G01*
X228998500Y-85845000D01*
G75*
G02*
X229061000Y-85907500I0J-62500D01*
G01*
X229061000Y-86032500D01*
G75*
G02*
X228998500Y-86095000I-62500J0D01*
G01*
X228048500Y-86095000D01*
G75*
G02*
X227986000Y-86032500I0J62500D01*
G01*
G37*
G36*
G01*
X227986000Y-86532500D02*
X227986000Y-86407500D01*
G75*
G02*
X228048500Y-86345000I62500J0D01*
G01*
X228998500Y-86345000D01*
G75*
G02*
X229061000Y-86407500I0J-62500D01*
G01*
X229061000Y-86532500D01*
G75*
G02*
X228998500Y-86595000I-62500J0D01*
G01*
X228048500Y-86595000D01*
G75*
G02*
X227986000Y-86532500I0J62500D01*
G01*
G37*
G36*
G01*
X227986000Y-87032500D02*
X227986000Y-86907500D01*
G75*
G02*
X228048500Y-86845000I62500J0D01*
G01*
X228998500Y-86845000D01*
G75*
G02*
X229061000Y-86907500I0J-62500D01*
G01*
X229061000Y-87032500D01*
G75*
G02*
X228998500Y-87095000I-62500J0D01*
G01*
X228048500Y-87095000D01*
G75*
G02*
X227986000Y-87032500I0J62500D01*
G01*
G37*
G36*
G01*
X227561000Y-88282500D02*
X227561000Y-87332500D01*
G75*
G02*
X227623500Y-87270000I62500J0D01*
G01*
X227748500Y-87270000D01*
G75*
G02*
X227811000Y-87332500I0J-62500D01*
G01*
X227811000Y-88282500D01*
G75*
G02*
X227748500Y-88345000I-62500J0D01*
G01*
X227623500Y-88345000D01*
G75*
G02*
X227561000Y-88282500I0J62500D01*
G01*
G37*
G36*
G01*
X227061000Y-88282500D02*
X227061000Y-87332500D01*
G75*
G02*
X227123500Y-87270000I62500J0D01*
G01*
X227248500Y-87270000D01*
G75*
G02*
X227311000Y-87332500I0J-62500D01*
G01*
X227311000Y-88282500D01*
G75*
G02*
X227248500Y-88345000I-62500J0D01*
G01*
X227123500Y-88345000D01*
G75*
G02*
X227061000Y-88282500I0J62500D01*
G01*
G37*
G36*
G01*
X226561000Y-88282500D02*
X226561000Y-87332500D01*
G75*
G02*
X226623500Y-87270000I62500J0D01*
G01*
X226748500Y-87270000D01*
G75*
G02*
X226811000Y-87332500I0J-62500D01*
G01*
X226811000Y-88282500D01*
G75*
G02*
X226748500Y-88345000I-62500J0D01*
G01*
X226623500Y-88345000D01*
G75*
G02*
X226561000Y-88282500I0J62500D01*
G01*
G37*
G36*
G01*
X226061000Y-88282500D02*
X226061000Y-87332500D01*
G75*
G02*
X226123500Y-87270000I62500J0D01*
G01*
X226248500Y-87270000D01*
G75*
G02*
X226311000Y-87332500I0J-62500D01*
G01*
X226311000Y-88282500D01*
G75*
G02*
X226248500Y-88345000I-62500J0D01*
G01*
X226123500Y-88345000D01*
G75*
G02*
X226061000Y-88282500I0J62500D01*
G01*
G37*
G36*
G01*
X225561000Y-88282500D02*
X225561000Y-87332500D01*
G75*
G02*
X225623500Y-87270000I62500J0D01*
G01*
X225748500Y-87270000D01*
G75*
G02*
X225811000Y-87332500I0J-62500D01*
G01*
X225811000Y-88282500D01*
G75*
G02*
X225748500Y-88345000I-62500J0D01*
G01*
X225623500Y-88345000D01*
G75*
G02*
X225561000Y-88282500I0J62500D01*
G01*
G37*
G36*
G01*
X225061000Y-88282500D02*
X225061000Y-87332500D01*
G75*
G02*
X225123500Y-87270000I62500J0D01*
G01*
X225248500Y-87270000D01*
G75*
G02*
X225311000Y-87332500I0J-62500D01*
G01*
X225311000Y-88282500D01*
G75*
G02*
X225248500Y-88345000I-62500J0D01*
G01*
X225123500Y-88345000D01*
G75*
G02*
X225061000Y-88282500I0J62500D01*
G01*
G37*
G36*
G01*
X224561000Y-88282500D02*
X224561000Y-87332500D01*
G75*
G02*
X224623500Y-87270000I62500J0D01*
G01*
X224748500Y-87270000D01*
G75*
G02*
X224811000Y-87332500I0J-62500D01*
G01*
X224811000Y-88282500D01*
G75*
G02*
X224748500Y-88345000I-62500J0D01*
G01*
X224623500Y-88345000D01*
G75*
G02*
X224561000Y-88282500I0J62500D01*
G01*
G37*
G36*
G01*
X224061000Y-88282500D02*
X224061000Y-87332500D01*
G75*
G02*
X224123500Y-87270000I62500J0D01*
G01*
X224248500Y-87270000D01*
G75*
G02*
X224311000Y-87332500I0J-62500D01*
G01*
X224311000Y-88282500D01*
G75*
G02*
X224248500Y-88345000I-62500J0D01*
G01*
X224123500Y-88345000D01*
G75*
G02*
X224061000Y-88282500I0J62500D01*
G01*
G37*
G36*
G01*
X223561000Y-88282500D02*
X223561000Y-87332500D01*
G75*
G02*
X223623500Y-87270000I62500J0D01*
G01*
X223748500Y-87270000D01*
G75*
G02*
X223811000Y-87332500I0J-62500D01*
G01*
X223811000Y-88282500D01*
G75*
G02*
X223748500Y-88345000I-62500J0D01*
G01*
X223623500Y-88345000D01*
G75*
G02*
X223561000Y-88282500I0J62500D01*
G01*
G37*
G36*
G01*
X223061000Y-88282500D02*
X223061000Y-87332500D01*
G75*
G02*
X223123500Y-87270000I62500J0D01*
G01*
X223248500Y-87270000D01*
G75*
G02*
X223311000Y-87332500I0J-62500D01*
G01*
X223311000Y-88282500D01*
G75*
G02*
X223248500Y-88345000I-62500J0D01*
G01*
X223123500Y-88345000D01*
G75*
G02*
X223061000Y-88282500I0J62500D01*
G01*
G37*
G36*
G01*
X222561000Y-88282500D02*
X222561000Y-87332500D01*
G75*
G02*
X222623500Y-87270000I62500J0D01*
G01*
X222748500Y-87270000D01*
G75*
G02*
X222811000Y-87332500I0J-62500D01*
G01*
X222811000Y-88282500D01*
G75*
G02*
X222748500Y-88345000I-62500J0D01*
G01*
X222623500Y-88345000D01*
G75*
G02*
X222561000Y-88282500I0J62500D01*
G01*
G37*
G36*
G01*
X221311000Y-87032500D02*
X221311000Y-86907500D01*
G75*
G02*
X221373500Y-86845000I62500J0D01*
G01*
X222323500Y-86845000D01*
G75*
G02*
X222386000Y-86907500I0J-62500D01*
G01*
X222386000Y-87032500D01*
G75*
G02*
X222323500Y-87095000I-62500J0D01*
G01*
X221373500Y-87095000D01*
G75*
G02*
X221311000Y-87032500I0J62500D01*
G01*
G37*
G36*
G01*
X221311000Y-86532500D02*
X221311000Y-86407500D01*
G75*
G02*
X221373500Y-86345000I62500J0D01*
G01*
X222323500Y-86345000D01*
G75*
G02*
X222386000Y-86407500I0J-62500D01*
G01*
X222386000Y-86532500D01*
G75*
G02*
X222323500Y-86595000I-62500J0D01*
G01*
X221373500Y-86595000D01*
G75*
G02*
X221311000Y-86532500I0J62500D01*
G01*
G37*
G36*
G01*
X221311000Y-86032500D02*
X221311000Y-85907500D01*
G75*
G02*
X221373500Y-85845000I62500J0D01*
G01*
X222323500Y-85845000D01*
G75*
G02*
X222386000Y-85907500I0J-62500D01*
G01*
X222386000Y-86032500D01*
G75*
G02*
X222323500Y-86095000I-62500J0D01*
G01*
X221373500Y-86095000D01*
G75*
G02*
X221311000Y-86032500I0J62500D01*
G01*
G37*
G36*
G01*
X221311000Y-85532500D02*
X221311000Y-85407500D01*
G75*
G02*
X221373500Y-85345000I62500J0D01*
G01*
X222323500Y-85345000D01*
G75*
G02*
X222386000Y-85407500I0J-62500D01*
G01*
X222386000Y-85532500D01*
G75*
G02*
X222323500Y-85595000I-62500J0D01*
G01*
X221373500Y-85595000D01*
G75*
G02*
X221311000Y-85532500I0J62500D01*
G01*
G37*
G36*
G01*
X221311000Y-85032500D02*
X221311000Y-84907500D01*
G75*
G02*
X221373500Y-84845000I62500J0D01*
G01*
X222323500Y-84845000D01*
G75*
G02*
X222386000Y-84907500I0J-62500D01*
G01*
X222386000Y-85032500D01*
G75*
G02*
X222323500Y-85095000I-62500J0D01*
G01*
X221373500Y-85095000D01*
G75*
G02*
X221311000Y-85032500I0J62500D01*
G01*
G37*
G36*
G01*
X221311000Y-84532500D02*
X221311000Y-84407500D01*
G75*
G02*
X221373500Y-84345000I62500J0D01*
G01*
X222323500Y-84345000D01*
G75*
G02*
X222386000Y-84407500I0J-62500D01*
G01*
X222386000Y-84532500D01*
G75*
G02*
X222323500Y-84595000I-62500J0D01*
G01*
X221373500Y-84595000D01*
G75*
G02*
X221311000Y-84532500I0J62500D01*
G01*
G37*
G36*
G01*
X221311000Y-84032500D02*
X221311000Y-83907500D01*
G75*
G02*
X221373500Y-83845000I62500J0D01*
G01*
X222323500Y-83845000D01*
G75*
G02*
X222386000Y-83907500I0J-62500D01*
G01*
X222386000Y-84032500D01*
G75*
G02*
X222323500Y-84095000I-62500J0D01*
G01*
X221373500Y-84095000D01*
G75*
G02*
X221311000Y-84032500I0J62500D01*
G01*
G37*
G36*
G01*
X221311000Y-83532500D02*
X221311000Y-83407500D01*
G75*
G02*
X221373500Y-83345000I62500J0D01*
G01*
X222323500Y-83345000D01*
G75*
G02*
X222386000Y-83407500I0J-62500D01*
G01*
X222386000Y-83532500D01*
G75*
G02*
X222323500Y-83595000I-62500J0D01*
G01*
X221373500Y-83595000D01*
G75*
G02*
X221311000Y-83532500I0J62500D01*
G01*
G37*
G36*
G01*
X221311000Y-83032500D02*
X221311000Y-82907500D01*
G75*
G02*
X221373500Y-82845000I62500J0D01*
G01*
X222323500Y-82845000D01*
G75*
G02*
X222386000Y-82907500I0J-62500D01*
G01*
X222386000Y-83032500D01*
G75*
G02*
X222323500Y-83095000I-62500J0D01*
G01*
X221373500Y-83095000D01*
G75*
G02*
X221311000Y-83032500I0J62500D01*
G01*
G37*
G36*
G01*
X221311000Y-82532500D02*
X221311000Y-82407500D01*
G75*
G02*
X221373500Y-82345000I62500J0D01*
G01*
X222323500Y-82345000D01*
G75*
G02*
X222386000Y-82407500I0J-62500D01*
G01*
X222386000Y-82532500D01*
G75*
G02*
X222323500Y-82595000I-62500J0D01*
G01*
X221373500Y-82595000D01*
G75*
G02*
X221311000Y-82532500I0J62500D01*
G01*
G37*
G36*
G01*
X221311000Y-82032500D02*
X221311000Y-81907500D01*
G75*
G02*
X221373500Y-81845000I62500J0D01*
G01*
X222323500Y-81845000D01*
G75*
G02*
X222386000Y-81907500I0J-62500D01*
G01*
X222386000Y-82032500D01*
G75*
G02*
X222323500Y-82095000I-62500J0D01*
G01*
X221373500Y-82095000D01*
G75*
G02*
X221311000Y-82032500I0J62500D01*
G01*
G37*
%TD*%
D15*
%TO.C,SW1*%
X212500000Y-95500000D03*
X212500000Y-100000000D03*
X206000000Y-95500000D03*
X206000000Y-100000000D03*
%TD*%
%TO.C,R7*%
G36*
G01*
X215662500Y-95687500D02*
X216137500Y-95687500D01*
G75*
G02*
X216375000Y-95925000I0J-237500D01*
G01*
X216375000Y-96425000D01*
G75*
G02*
X216137500Y-96662500I-237500J0D01*
G01*
X215662500Y-96662500D01*
G75*
G02*
X215425000Y-96425000I0J237500D01*
G01*
X215425000Y-95925000D01*
G75*
G02*
X215662500Y-95687500I237500J0D01*
G01*
G37*
G36*
G01*
X215662500Y-93862500D02*
X216137500Y-93862500D01*
G75*
G02*
X216375000Y-94100000I0J-237500D01*
G01*
X216375000Y-94600000D01*
G75*
G02*
X216137500Y-94837500I-237500J0D01*
G01*
X215662500Y-94837500D01*
G75*
G02*
X215425000Y-94600000I0J237500D01*
G01*
X215425000Y-94100000D01*
G75*
G02*
X215662500Y-93862500I237500J0D01*
G01*
G37*
%TD*%
%TO.C,R6*%
G36*
G01*
X215712500Y-100075000D02*
X216187500Y-100075000D01*
G75*
G02*
X216425000Y-100312500I0J-237500D01*
G01*
X216425000Y-100812500D01*
G75*
G02*
X216187500Y-101050000I-237500J0D01*
G01*
X215712500Y-101050000D01*
G75*
G02*
X215475000Y-100812500I0J237500D01*
G01*
X215475000Y-100312500D01*
G75*
G02*
X215712500Y-100075000I237500J0D01*
G01*
G37*
G36*
G01*
X215712500Y-98250000D02*
X216187500Y-98250000D01*
G75*
G02*
X216425000Y-98487500I0J-237500D01*
G01*
X216425000Y-98987500D01*
G75*
G02*
X216187500Y-99225000I-237500J0D01*
G01*
X215712500Y-99225000D01*
G75*
G02*
X215475000Y-98987500I0J237500D01*
G01*
X215475000Y-98487500D01*
G75*
G02*
X215712500Y-98250000I237500J0D01*
G01*
G37*
%TD*%
%TO.C,R5*%
G36*
G01*
X209937500Y-83337500D02*
X209937500Y-82862500D01*
G75*
G02*
X210175000Y-82625000I237500J0D01*
G01*
X210675000Y-82625000D01*
G75*
G02*
X210912500Y-82862500I0J-237500D01*
G01*
X210912500Y-83337500D01*
G75*
G02*
X210675000Y-83575000I-237500J0D01*
G01*
X210175000Y-83575000D01*
G75*
G02*
X209937500Y-83337500I0J237500D01*
G01*
G37*
G36*
G01*
X208112500Y-83337500D02*
X208112500Y-82862500D01*
G75*
G02*
X208350000Y-82625000I237500J0D01*
G01*
X208850000Y-82625000D01*
G75*
G02*
X209087500Y-82862500I0J-237500D01*
G01*
X209087500Y-83337500D01*
G75*
G02*
X208850000Y-83575000I-237500J0D01*
G01*
X208350000Y-83575000D01*
G75*
G02*
X208112500Y-83337500I0J237500D01*
G01*
G37*
%TD*%
%TO.C,R4*%
G36*
G01*
X231377500Y-61329000D02*
X230902500Y-61329000D01*
G75*
G02*
X230665000Y-61091500I0J237500D01*
G01*
X230665000Y-60591500D01*
G75*
G02*
X230902500Y-60354000I237500J0D01*
G01*
X231377500Y-60354000D01*
G75*
G02*
X231615000Y-60591500I0J-237500D01*
G01*
X231615000Y-61091500D01*
G75*
G02*
X231377500Y-61329000I-237500J0D01*
G01*
G37*
G36*
G01*
X231377500Y-63154000D02*
X230902500Y-63154000D01*
G75*
G02*
X230665000Y-62916500I0J237500D01*
G01*
X230665000Y-62416500D01*
G75*
G02*
X230902500Y-62179000I237500J0D01*
G01*
X231377500Y-62179000D01*
G75*
G02*
X231615000Y-62416500I0J-237500D01*
G01*
X231615000Y-62916500D01*
G75*
G02*
X231377500Y-63154000I-237500J0D01*
G01*
G37*
%TD*%
%TO.C,R3*%
G36*
G01*
X222233500Y-61329000D02*
X221758500Y-61329000D01*
G75*
G02*
X221521000Y-61091500I0J237500D01*
G01*
X221521000Y-60591500D01*
G75*
G02*
X221758500Y-60354000I237500J0D01*
G01*
X222233500Y-60354000D01*
G75*
G02*
X222471000Y-60591500I0J-237500D01*
G01*
X222471000Y-61091500D01*
G75*
G02*
X222233500Y-61329000I-237500J0D01*
G01*
G37*
G36*
G01*
X222233500Y-63154000D02*
X221758500Y-63154000D01*
G75*
G02*
X221521000Y-62916500I0J237500D01*
G01*
X221521000Y-62416500D01*
G75*
G02*
X221758500Y-62179000I237500J0D01*
G01*
X222233500Y-62179000D01*
G75*
G02*
X222471000Y-62416500I0J-237500D01*
G01*
X222471000Y-62916500D01*
G75*
G02*
X222233500Y-63154000I-237500J0D01*
G01*
G37*
%TD*%
%TO.C,R2*%
G36*
G01*
X224806500Y-62282500D02*
X225281500Y-62282500D01*
G75*
G02*
X225519000Y-62520000I0J-237500D01*
G01*
X225519000Y-63020000D01*
G75*
G02*
X225281500Y-63257500I-237500J0D01*
G01*
X224806500Y-63257500D01*
G75*
G02*
X224569000Y-63020000I0J237500D01*
G01*
X224569000Y-62520000D01*
G75*
G02*
X224806500Y-62282500I237500J0D01*
G01*
G37*
G36*
G01*
X224806500Y-60457500D02*
X225281500Y-60457500D01*
G75*
G02*
X225519000Y-60695000I0J-237500D01*
G01*
X225519000Y-61195000D01*
G75*
G02*
X225281500Y-61432500I-237500J0D01*
G01*
X224806500Y-61432500D01*
G75*
G02*
X224569000Y-61195000I0J237500D01*
G01*
X224569000Y-60695000D01*
G75*
G02*
X224806500Y-60457500I237500J0D01*
G01*
G37*
%TD*%
%TO.C,R1*%
G36*
G01*
X228329500Y-61329000D02*
X227854500Y-61329000D01*
G75*
G02*
X227617000Y-61091500I0J237500D01*
G01*
X227617000Y-60591500D01*
G75*
G02*
X227854500Y-60354000I237500J0D01*
G01*
X228329500Y-60354000D01*
G75*
G02*
X228567000Y-60591500I0J-237500D01*
G01*
X228567000Y-61091500D01*
G75*
G02*
X228329500Y-61329000I-237500J0D01*
G01*
G37*
G36*
G01*
X228329500Y-63154000D02*
X227854500Y-63154000D01*
G75*
G02*
X227617000Y-62916500I0J237500D01*
G01*
X227617000Y-62416500D01*
G75*
G02*
X227854500Y-62179000I237500J0D01*
G01*
X228329500Y-62179000D01*
G75*
G02*
X228567000Y-62416500I0J-237500D01*
G01*
X228567000Y-62916500D01*
G75*
G02*
X228329500Y-63154000I-237500J0D01*
G01*
G37*
%TD*%
D16*
%TO.C,J2*%
X210820000Y-90932000D03*
X208280000Y-90932000D03*
X210820000Y-88392000D03*
X208280000Y-88392000D03*
X210820000Y-85852000D03*
D17*
X208280000Y-85852000D03*
%TD*%
D18*
%TO.C,J1*%
X222316000Y-54346000D03*
X230966000Y-54346000D03*
D19*
X222316000Y-57726000D03*
X230966000Y-57726000D03*
D20*
X226216000Y-57356000D03*
X223666000Y-57356000D03*
X224516000Y-57356000D03*
X225366000Y-57356000D03*
X229616000Y-57356000D03*
X227916000Y-57356000D03*
X227066000Y-57356000D03*
X228766000Y-57356000D03*
X223666000Y-58706000D03*
X224516000Y-58706000D03*
X225366000Y-58706000D03*
X226216000Y-58706000D03*
X227066000Y-58706000D03*
X227916000Y-58706000D03*
X228766000Y-58706000D03*
X229616000Y-58706000D03*
%TD*%
%TO.C,D2*%
G36*
G01*
X217712500Y-95060999D02*
X217287500Y-95060999D01*
G75*
G02*
X217075000Y-94848499I0J212500D01*
G01*
X217075000Y-94048499D01*
G75*
G02*
X217287500Y-93835999I212500J0D01*
G01*
X217712500Y-93835999D01*
G75*
G02*
X217925000Y-94048499I0J-212500D01*
G01*
X217925000Y-94848499D01*
G75*
G02*
X217712500Y-95060999I-212500J0D01*
G01*
G37*
G36*
G01*
X217712500Y-96685999D02*
X217287500Y-96685999D01*
G75*
G02*
X217075000Y-96473499I0J212500D01*
G01*
X217075000Y-95673499D01*
G75*
G02*
X217287500Y-95460999I212500J0D01*
G01*
X217712500Y-95460999D01*
G75*
G02*
X217925000Y-95673499I0J-212500D01*
G01*
X217925000Y-96473499D01*
G75*
G02*
X217712500Y-96685999I-212500J0D01*
G01*
G37*
%TD*%
%TO.C,D1*%
G36*
G01*
X217394499Y-99839001D02*
X217819499Y-99839001D01*
G75*
G02*
X218031999Y-100051501I0J-212500D01*
G01*
X218031999Y-100851501D01*
G75*
G02*
X217819499Y-101064001I-212500J0D01*
G01*
X217394499Y-101064001D01*
G75*
G02*
X217181999Y-100851501I0J212500D01*
G01*
X217181999Y-100051501D01*
G75*
G02*
X217394499Y-99839001I212500J0D01*
G01*
G37*
G36*
G01*
X217394499Y-98214001D02*
X217819499Y-98214001D01*
G75*
G02*
X218031999Y-98426501I0J-212500D01*
G01*
X218031999Y-99226501D01*
G75*
G02*
X217819499Y-99439001I-212500J0D01*
G01*
X217394499Y-99439001D01*
G75*
G02*
X217181999Y-99226501I0J212500D01*
G01*
X217181999Y-98426501D01*
G75*
G02*
X217394499Y-98214001I212500J0D01*
G01*
G37*
%TD*%
%TO.C,C4*%
G36*
G01*
X222995500Y-76991500D02*
X222520500Y-76991500D01*
G75*
G02*
X222283000Y-76754000I0J237500D01*
G01*
X222283000Y-76154000D01*
G75*
G02*
X222520500Y-75916500I237500J0D01*
G01*
X222995500Y-75916500D01*
G75*
G02*
X223233000Y-76154000I0J-237500D01*
G01*
X223233000Y-76754000D01*
G75*
G02*
X222995500Y-76991500I-237500J0D01*
G01*
G37*
G36*
G01*
X222995500Y-78716500D02*
X222520500Y-78716500D01*
G75*
G02*
X222283000Y-78479000I0J237500D01*
G01*
X222283000Y-77879000D01*
G75*
G02*
X222520500Y-77641500I237500J0D01*
G01*
X222995500Y-77641500D01*
G75*
G02*
X223233000Y-77879000I0J-237500D01*
G01*
X223233000Y-78479000D01*
G75*
G02*
X222995500Y-78716500I-237500J0D01*
G01*
G37*
%TD*%
%TO.C,C3*%
G36*
G01*
X220742500Y-94813000D02*
X221217500Y-94813000D01*
G75*
G02*
X221455000Y-95050500I0J-237500D01*
G01*
X221455000Y-95650500D01*
G75*
G02*
X221217500Y-95888000I-237500J0D01*
G01*
X220742500Y-95888000D01*
G75*
G02*
X220505000Y-95650500I0J237500D01*
G01*
X220505000Y-95050500D01*
G75*
G02*
X220742500Y-94813000I237500J0D01*
G01*
G37*
G36*
G01*
X220742500Y-93088000D02*
X221217500Y-93088000D01*
G75*
G02*
X221455000Y-93325500I0J-237500D01*
G01*
X221455000Y-93925500D01*
G75*
G02*
X221217500Y-94163000I-237500J0D01*
G01*
X220742500Y-94163000D01*
G75*
G02*
X220505000Y-93925500I0J237500D01*
G01*
X220505000Y-93325500D01*
G75*
G02*
X220742500Y-93088000I237500J0D01*
G01*
G37*
%TD*%
%TO.C,C2*%
G36*
G01*
X228870500Y-94813000D02*
X229345500Y-94813000D01*
G75*
G02*
X229583000Y-95050500I0J-237500D01*
G01*
X229583000Y-95650500D01*
G75*
G02*
X229345500Y-95888000I-237500J0D01*
G01*
X228870500Y-95888000D01*
G75*
G02*
X228633000Y-95650500I0J237500D01*
G01*
X228633000Y-95050500D01*
G75*
G02*
X228870500Y-94813000I237500J0D01*
G01*
G37*
G36*
G01*
X228870500Y-93088000D02*
X229345500Y-93088000D01*
G75*
G02*
X229583000Y-93325500I0J-237500D01*
G01*
X229583000Y-93925500D01*
G75*
G02*
X229345500Y-94163000I-237500J0D01*
G01*
X228870500Y-94163000D01*
G75*
G02*
X228633000Y-93925500I0J237500D01*
G01*
X228633000Y-93325500D01*
G75*
G02*
X228870500Y-93088000I237500J0D01*
G01*
G37*
%TD*%
%TO.C,C1*%
G36*
G01*
X217062500Y-86625000D02*
X217537500Y-86625000D01*
G75*
G02*
X217775000Y-86862500I0J-237500D01*
G01*
X217775000Y-87462500D01*
G75*
G02*
X217537500Y-87700000I-237500J0D01*
G01*
X217062500Y-87700000D01*
G75*
G02*
X216825000Y-87462500I0J237500D01*
G01*
X216825000Y-86862500D01*
G75*
G02*
X217062500Y-86625000I237500J0D01*
G01*
G37*
G36*
G01*
X217062500Y-84900000D02*
X217537500Y-84900000D01*
G75*
G02*
X217775000Y-85137500I0J-237500D01*
G01*
X217775000Y-85737500D01*
G75*
G02*
X217537500Y-85975000I-237500J0D01*
G01*
X217062500Y-85975000D01*
G75*
G02*
X216825000Y-85737500I0J237500D01*
G01*
X216825000Y-85137500D01*
G75*
G02*
X217062500Y-84900000I237500J0D01*
G01*
G37*
%TD*%
M02*
